<?xml version="1.0" encoding="utf-8"?>
<!-- Generator: Adobe Illustrator 24.0.1, SVG Export Plug-In . SVG Version: 6.00 Build 0)  -->
<svg version="1.1" id="Слой_1" xmlns="http://www.w3.org/2000/svg" xmlns:xlink="http://www.w3.org/1999/xlink" x="0px" y="0px"
	 viewBox="0 0 573.4 165.5" style="enable-background:new 0 0 573.4 165.5;" xml:space="preserve">
<g>
	<g id="logo_3_">
		<g id="sign_3_">
			<polygon id="fire_3_" points="535.3,138.6 522.6,125.9 509.9,138.6 522.6,165.1 			"/>
			<path id="rocket_3_" d="M522.6,13.4c-2.7,1.4-37.8,19.9-37.8,49.6c0,25.4,20.7,63.9,20.7,63.9l17.1-17.2l17.1,17.2
				c0,0,20.7-38.5,20.7-63.9C560.4,33.3,525.2,14.7,522.6,13.4z M533.9,98.1l-11.3-11.3l-11.3,11.3c-0.6-1.6-8.2-22.1-8.2-35.5
				c0-18.1,18.1-28.2,19.5-28.9c1.4,0.7,19.5,10.9,19.5,28.9C542,76,534.5,96.5,533.9,98.1z"/>
			<g id="star_3_">
				<g>
					<rect x="551.2" y="4.2" transform="matrix(0.7071 0.7071 -0.7071 0.7071 173.582 -392.332)" width="18.3" height="18.3"/>
				</g>
			</g>
			<circle cx="522.8" cy="61.8" r="8.9"/>
		</g>
		<g id="logotype_3_">
			<g>
				<path d="M211.6,22c-2.3,0.7-6.1,1.6-9.9,2.4c-3.5,0.7-8.1,1.4-12.8,3.1c-7.4,2.6-11.2,10.2-11.9,19.8c0,0.6-0.3,1.3-0.5,1.9
					l0.4,0c2.9-6.2,10.7-10.4,18.2-10.4c13.1,0,21.6,8.7,21.6,22.1c0,11.6-9,23.2-23.8,23.2c-16.1,0-24.5-13.3-24.5-30.1
					c0-18.7,5.2-28.7,17-33.7c3.5-1.5,6.5-1.9,9.2-2.5c6.4-1.3,10.3-2.1,14.4-3.3L211.6,22z M193.1,76.6c8.4,0,14.9-6.4,14.9-15.3
					c0-9.5-5.7-15.1-14.7-15.1c-6.1,0-13.4,4.9-15.8,10.9C177.5,67.5,183.1,76.6,193.1,76.6z"/>
			</g>
			<g>
				<path d="M230.9,82.6H223V38.3h8.8c0,0,0,27.9,0,29c0,1-0.2,2.1-0.4,2.8c0.2,0,0.4,0,0.4,0l25.3-31.7h7.9v44.3h-8.8
					c0,0,0-27.8,0-28.9c0-1,0.2-2.2,0.4-2.9c-0.2,0-0.4,0-0.4,0L230.9,82.6z"/>
			</g>
			<g>
				<path d="M270.9,78.1l3.5-6.4c3.5,2.9,9,4.9,13.7,4.9c6.6,0,11-3,11-7.3c0-3.6-2.7-5.5-8.1-5.5h-7.5v-6.9h7c4.4,0,7.2-2.5,7.2-6
					c0-3.9-3.1-6.4-8.9-6.4c-4.2,0-9.2,1.5-13.2,4.7l-3.5-6.3c5.3-4.1,11.7-5.8,17.9-5.8c10.6,0,16.7,4.8,16.7,12.1
					c0,5.1-2.6,8.6-7.8,10.4v0.2c5.9,0.7,9.2,5,9.2,10.4c0,8.2-8.1,13.8-18.8,13.8C281.4,84.1,274.7,81.5,270.9,78.1z"/>
			</g>
			<g>
				<path d="M346.6,82.6V63.4h-23.8v19.2H314V38.3h8.8v18.2h23.8V38.3h8.8v44.3H346.6z"/>
			</g>
			<g>
				<path d="M404.6,63.6c0.1-0.9,0.1-1.8,0.1-2.8c0-13.5-6.5-23.7-21.6-23.7c-13,0-21.5,10.2-21.5,23.7c0,13.3,8.6,23.3,24.1,23.3
					c7.5,0,13.9-2.3,18.5-6l-3.5-6.4c-3.4,2.6-8.6,4.9-14.7,4.9c-9.7,0-14.4-5.3-15.2-13h0H404.6z M383.6,44.5
					c8,0,11.9,5.4,12.6,12.2h-25.3C372,49.9,377,44.5,383.6,44.5z"/>
			</g>
			<g>
				<path d="M434.6,44.7c4.5,0,9,1.2,14.2,4.5c0,0,2.2-4.1,3.6-6.5c-5.3-3.8-11.4-5.6-18-5.6c-14.3,0-23.8,10-23.8,23.5
					c0,13.1,9.5,23.5,24,23.5c7.1,0,13.3-2,17.8-5.8l-3.5-6.4c-3.4,2.6-8.3,4.5-13.8,4.5c-9,0-15.7-6.8-15.7-16.4
					C419.5,51.8,424.8,44.7,434.6,44.7z"/>
			</g>
			<g>
				<g>
					<path d="M140.9,19.1c0,3.2-1.4,5-3.9,5c-2.5,0-3.9-1.9-3.9-5h-12.9c0.4,9.4,5.8,15.8,17,15.8c10.3,0,16.2-6.5,16.6-15.8H140.9z
						"/>
				</g>
				<g>
					<path d="M113.7,82.6l0-44.3h14.9c0,0,0,19.1,0,20.6c0,1.5-0.3,3.2-0.3,3.2h0.6L145,38.3h14.2v44.3h-14.9c0,0,0-18.8,0-20.8
						c0-1.5,0.3-2.9,0.3-2.9h-0.6l-16.2,23.7H113.7z"/>
				</g>
				<g>
					<path d="M83,37.2c14.1,0,24.6,10,24.6,23.3c0,13.2-10.5,23.2-24.6,23.2c-14,0-24.5-10-24.5-23.2C58.5,47.2,69.1,37.2,83,37.2z
						 M83,70c5.4,0,9-4.2,9-9.4c0-5.4-3.6-9.6-9-9.6c-5.3,0-9,4.2-9,9.6C74,65.8,77.8,70,83,70z"/>
				</g>
				<g>
					<path d="M40.7,38.3c0,0-12.4,16.1-12.9,16.7c-0.6,0.8-0.7,1.2-0.7,1.2h-0.6c0,0-0.1-0.4-0.7-1.2C24.9,54,12.1,38.3,12.1,38.3
						H0.4v44.3h14.3c0,0,0-16.6,0-18.6c0-2-0.3-3.2-0.3-3.2H15L26.5,74h0.6l10.7-13.2h0.6c0,0-0.3,1.2-0.3,3.2c0,2,0,18.6,0,18.6
						h14.3V38.3H40.7z"/>
				</g>
			</g>
		</g>
	</g>
	<g>
		<path d="M369.1,120.4h3.5c0.3-4.3,1.4-7.6,3.1-9.9c1.8-2.3,4.2-3.5,7.4-3.5c1.9,0,3.5,0.4,4.8,1.2c1.3,0.8,2.4,1.9,3.3,3.3
			c0.9,1.4,1.5,3.1,1.9,5.1c0.4,2,0.6,4.2,0.6,6.7c0,5.2-0.9,9.2-2.7,12c-1.8,2.8-4.4,4.2-7.9,4.2c-1.6,0-3.1-0.3-4.3-1
			c-1.2-0.7-2.3-1.6-3.2-2.8c-0.9-1.2-1.5-2.6-2-4.3c-0.5-1.7-0.8-3.6-1-5.6h-3.5V139H364v-31.3h5.1V120.4z M377.7,123.3
			c0,1.6,0.1,3,0.3,4.4c0.2,1.3,0.5,2.5,0.9,3.4s1,1.7,1.6,2.2c0.7,0.5,1.5,0.8,2.5,0.8c1.8,0,3.1-0.8,4-2.5
			c0.9-1.7,1.3-4.5,1.3-8.3c0-1.5-0.1-2.9-0.2-4.2c-0.2-1.3-0.4-2.5-0.8-3.4c-0.4-1-0.9-1.7-1.6-2.3c-0.7-0.6-1.5-0.8-2.6-0.8
			c-1.8,0-3.1,0.9-4,2.6C378.1,116.9,377.7,119.6,377.7,123.3z"/>
		<path d="M412.3,113.2h-10V139h-5.1v-31.3h15.1V113.2z"/>
		<path d="M414.2,108c1-0.2,2.2-0.4,3.4-0.6c1.2-0.1,2.5-0.2,3.7-0.2c1.3,0,2.6,0.1,3.9,0.4c1.3,0.3,2.5,0.8,3.5,1.5
			c1,0.8,1.9,1.8,2.5,3.2c0.7,1.4,1,3.1,1,5.3c0,2-0.3,3.6-0.9,5c-0.6,1.4-1.3,2.5-2.3,3.3c-0.9,0.9-2,1.5-3.2,1.9
			c-1.2,0.4-2.4,0.6-3.7,0.6c-0.1,0-0.3,0-0.6,0s-0.6,0-0.9,0c-0.3,0-0.6,0-0.9-0.1c-0.3,0-0.5-0.1-0.6-0.1V139h-5.1V108z
			 M421.8,112.5c-0.5,0-1,0-1.4,0.1c-0.4,0-0.8,0.1-1.1,0.2v10.1c0.1,0,0.2,0.1,0.4,0.1c0.2,0,0.4,0.1,0.6,0.1c0.2,0,0.4,0,0.6,0
			c0.2,0,0.4,0,0.5,0c0.7,0,1.3-0.1,2-0.2c0.7-0.2,1.2-0.4,1.8-0.8c0.5-0.4,0.9-1,1.2-1.7c0.3-0.7,0.5-1.7,0.5-2.8
			c0-1-0.2-1.8-0.4-2.4c-0.3-0.6-0.7-1.2-1.2-1.5c-0.5-0.4-1-0.7-1.7-0.8C423.1,112.6,422.4,112.5,421.8,112.5z"/>
		<path d="M445.4,132.1h-8l-2,6.9h-5.1l9.3-31.5h3.7l9.3,31.5h-5.3L445.4,132.1z M438.7,127.1h5.6l-1.9-7l-0.8-4.9h-0.2l-0.8,5
			L438.7,127.1z"/>
	</g>
</g>
</svg>
