<svg id="Layer_1" data-name="Layer 1" xmlns="http://www.w3.org/2000/svg" viewBox="0 0 80 80"><defs><style>.cls-1{fill:#fff;}.cls-2{fill:#0000fd;}</style></defs><title>day 5</title><path class="cls-1" d="M69.74,1.07a9,9,0,0,0-1-.06C65.5,1,63.56,2.8,63,4.62a11.59,11.59,0,0,1-2.87,3.62V3.93C60.14,1,55.24.55,52.61.31c-3-.28-7-.41-12.69-.41-5.46,0-9.58.13-12.58.41C24.67.56,19.7,1,19.7,3.93V8.11A11.88,11.88,0,0,1,17,4.62C16.44,2.8,14.5,1,11.29,1a9,9,0,0,0-1,.06A7.13,7.13,0,0,0,4.93,4.28a8.85,8.85,0,0,0-1.15,6.21l0,.28c.56,3.86,1.47,6,8.88,12.84,3,2.8,6,5.73,8.42,8.24a3.1,3.1,0,0,0-1.92,2.77,3.35,3.35,0,0,0,3.55,3.11,3.84,3.84,0,0,0,2.45-.86c2.15,4.15,5.13,7.84,9.27,10-.84,2.58-2.75,6.75-5.82,8.68H21.91a2.32,2.32,0,0,0-2,1l-3.08,4.76a1.8,1.8,0,0,0-.29,1V76.64a2.06,2.06,0,0,0,1.81,1.94c.31,0,7.75,1.32,21.53,1.32s21.22-1.27,21.53-1.32a2.06,2.06,0,0,0,1.81-1.94V62.29a1.8,1.8,0,0,0-.29-1l-3.08-4.76a2.32,2.32,0,0,0-2-1H51.18c-3.08-1.94-5-6.1-5.82-8.68a22.51,22.51,0,0,0,9.27-10,3.8,3.8,0,0,0,2.44.85,3.35,3.35,0,0,0,3.55-3.11,3.08,3.08,0,0,0-1.8-2.71c2.46-2.52,5.43-5.48,8.48-8.3,7.41-6.87,8.32-9,8.88-12.84l0-.28C77,5.46,74.3,1.59,69.74,1.07ZM20.89,24.75c-2.23.76-6.77-4.76-7-6.57-.05-.11-.1-.23-.14-.34C10.06,16.55,7.56,6.14,11,6.14c1,0,5.34,5.34,7.77,6.57a3.75,3.75,0,0,1,2.44,3.21C22.24,18.29,22.45,24.22,20.89,24.75Zm47.34-8.59a3.61,3.61,0,0,1-1.92,2.09c-.63,1-5.93,6.46-7.28,7.11-.79.39-1-11.62,2.45-13.14A3.47,3.47,0,0,1,63,10.93c.5-1.37,4.28-4.64,6.16-4.77C73,5.89,71.66,14.66,68.23,16.16Z"/><path class="cls-2" d="M69.74,1.07a9,9,0,0,0-1-.06h0C65.5,1,63.56,2.8,63,4.62a11.59,11.59,0,0,1-2.87,3.62V3.93C60.14,1,55.24.55,52.61.31c-3-.28-7-.41-12.69-.41-5.46,0-9.58.13-12.58.41C24.67.56,19.7,1,19.7,3.93V8.11A11.88,11.88,0,0,1,17,4.62C16.44,2.8,14.5,1,11.29,1a9,9,0,0,0-1,.06A7.13,7.13,0,0,0,4.93,4.28a8.85,8.85,0,0,0-1.15,6.21l0,.28c.56,3.86,1.47,6,8.88,12.84,3,2.8,6,5.73,8.42,8.24a3.1,3.1,0,0,0-1.92,2.77,3.35,3.35,0,0,0,3.55,3.11,3.84,3.84,0,0,0,2.45-.86c2.15,4.15,5.13,7.84,9.27,10-.84,2.58-2.75,6.75-5.82,8.68H21.91a2.32,2.32,0,0,0-2,1l-3.08,4.76a1.8,1.8,0,0,0-.29,1V76.64a2.06,2.06,0,0,0,1.81,1.94c.31,0,7.75,1.32,21.53,1.32s21.22-1.27,21.53-1.32a2.06,2.06,0,0,0,1.81-1.94V62.29a1.8,1.8,0,0,0-.29-1l-3.08-4.76a2.32,2.32,0,0,0-2-1H51.18c-3.08-1.94-5-6.1-5.82-8.68a22.51,22.51,0,0,0,9.27-10,3.8,3.8,0,0,0,2.44.85,3.35,3.35,0,0,0,3.55-3.11,3.08,3.08,0,0,0-1.8-2.71c2.46-2.52,5.43-5.48,8.48-8.3,7.41-6.87,8.32-9,8.88-12.84l0-.28C77,5.46,74.3,1.59,69.74,1.07ZM35.79,49.22c.9.93,2.82,2.29,6.72,2.87a16.51,16.51,0,0,0,3,6.45h0c-.9.09-2,.18-3.1.26s-2.35.15-3.57.19c-.61,0-1.22,0-1.82,0s-1.19,0-1.76,0-1.12,0-1.64-.07l-.76-.05-.7-.08-.65-.08-.58-.11a7,7,0,0,1-.93-.2l-.79-.25.77.31a7.31,7.31,0,0,0,.91.27l.57.16.65.12.71.14.76.11c.52.08,1.07.14,1.65.19s1.17.1,1.77.15,1.22.06,1.84.1c1.23.05,2.46.07,3.61.07s2.23,0,3.16,0H46c-1.57.13-3.54.21-6,.21C27.29,60,28,58,28,58,32.11,56.52,34.54,52.26,35.79,49.22Zm-16-34.58a68.87,68.87,0,0,0,1,8.53c-1.14-1.11-2.32-2.24-3.52-3.34-6.7-6.22-6.85-7.25-7.21-9.76l0-.28a4.81,4.81,0,0,1,.23-2.48c.31-.73.69-.77.84-.79h0A16.34,16.34,0,0,0,19.74,14.64Zm2.05-1.25v-9A2.14,2.14,0,0,1,21,3.85a.81.81,0,0,1-.14-.41.63.63,0,0,1,0-.19A.53.53,0,0,1,21,3.1a1.43,1.43,0,0,1,.39-.39l.29-.18.11,0-.09.07a1.45,1.45,0,0,0-.24.22,1.1,1.1,0,0,0-.28.4.47.47,0,0,0,.12.51,2,2,0,0,0,.73.38,7.72,7.72,0,0,0,1,.26c.75.14,1.63.23,2.59.32s2,.12,3.13.17,2.29.06,3.5.08,2.48,0,3.76,0,2.58,0,3.88,0,2.6,0,3.88,0l3.76,0c1.21,0,2.39,0,3.5-.09s2.16-.09,3.13-.17a24.1,24.1,0,0,0,2.59-.32,6.73,6.73,0,0,0,1-.26,1.92,1.92,0,0,0,.73-.37.47.47,0,0,0,.12-.51,1.1,1.1,0,0,0-.28-.4,2,2,0,0,0-.24-.22l-.09-.07.11,0a2.36,2.36,0,0,1,.29.18,1.43,1.43,0,0,1,.39.39.53.53,0,0,1,.08.15.63.63,0,0,1,0,.19.81.81,0,0,1-.14.41,1.62,1.62,0,0,1-.33.31c0,.29,0,.84,0,1.62,0,1.17.05,2.86.08,4.87,0,1,0,2.1,0,3.26s-.1,2.38-.22,3.64a66.35,66.35,0,0,1-1.25,7.84c-.31,1.32-.64,2.64-1,3.92s-.83,2.53-1.31,3.72a35.25,35.25,0,0,1-1.59,3.38c-.27.53-.59,1-.87,1.51s-.59.94-.91,1.36-.6.84-.91,1.21l-.45.55-.46.49a11.84,11.84,0,0,1-.86.87l-.39.38L48,43.1c-.24.2-.45.39-.65.54l-.51.37-.43.3.41-.32.5-.38.63-.56.37-.33c.12-.12.24-.25.38-.38s.55-.56.82-.89l.43-.51c.15-.17.28-.36.43-.55.3-.37.59-.78.88-1.22s.57-.89.87-1.36.57-1,.83-1.52a34.73,34.73,0,0,0,1.52-3.36c.48-1.19.9-2.43,1.29-3.71s.72-2.58,1-3.9a66.08,66.08,0,0,0,1.3-7.8c.12-1.25.23-2.46.28-3.61s0-2.25,0-3.26c0-2,.06-3.7.08-4.87,0-.77,0-1.31,0-1.61a3.35,3.35,0,0,1-.45.27A6.51,6.51,0,0,1,57,4.85a19.44,19.44,0,0,1-2.64.62c-.75.13-1.55.24-2.4.34-.5,23-4.58,33.53-7.56,38.17l-.27.12a12.57,12.57,0,0,1-4.66,1,11.66,11.66,0,0,1-1.32-.06,12.76,12.76,0,0,1-1.26-.25,8.81,8.81,0,0,1-1.13-.4l-.51-.23L34.76,44c-.29-.17-.55-.33-.77-.49s-.41-.29-.55-.42L33,42.66l.39.45.49.49c.2.18.44.37.7.59l.43.31.49.3a9.16,9.16,0,0,0,1.13.57,10.73,10.73,0,0,0,1.32.43,11.41,11.41,0,0,0,1.44.26,12.65,12.65,0,0,0,2.89,0L42.9,46h0a10.59,10.59,0,0,1-6,0h0C23.18,40.38,21.79,16.54,21.79,13.39ZM70,9.79l0,.28c-.36,2.51-.51,3.54-7.21,9.76C61.49,21,60.24,22.19,59,23.36a67.87,67.87,0,0,0,1.06-8.66A16,16,0,0,0,68.9,6.51h0c.15,0,.53.06.84.79A4.71,4.71,0,0,1,70,9.79ZM24.12,1.64c.23-.06.57-.12,1-.19l1.58-.19c.62-.06,1.31-.12,2.07-.17C30.3,1,32.07.9,34,.86s3.92-.08,6-.09,4,0,5.95.09,3.67.14,5.19.23c.76,0,1.45.11,2.07.17l1.58.19c.44.07.79.13,1,.19l.35.09-.36-.07c-.23,0-.57-.07-1-.11-.88-.09-2.14-.13-3.66-.18-.76,0-1.58-.05-2.45-.06l-2.73,0c-1.89,0-3.92,0-5.94,0s-4.05,0-5.94,0l-2.73,0c-.87,0-1.69,0-2.45.06-1.52,0-2.78.09-3.66.18-.44,0-.78.07-1,.11l-.35.07ZM5.48,10.58l0-.28c-.62-4.17,1.45-7.37,5-7.78a7.88,7.88,0,0,1,.82,0c2.53,0,3.81,1.44,4.11,2.6A12.72,12.72,0,0,0,19.7,10v1.44A17.75,17.75,0,0,1,13.81,8,13.45,13.45,0,0,1,12.62,5.9a1,1,0,0,1-.07-.25c0-.07-.15-.61-1.25-.61l-.46,0C8.66,5.31,8,7.78,8.34,10l0,.29c.28,1.93.46,3.13,3,5.94a30.07,30.07,0,0,0,4.65,6,36.92,36.92,0,0,1,6.07,8.39c-2.4-2.45-5.25-5.28-8.16-8C6.5,15.72,6,13.94,5.48,10.58Zm17,26.14a2.26,2.26,0,0,1-2.39-2.1,2.11,2.11,0,0,1,1.46-1.94,4,4,0,0,0,.5,2.33,2.94,2.94,0,0,0,1.78,1.35A2.62,2.62,0,0,1,22.49,36.72Zm-.58,20.81h4a2.1,2.1,0,0,0,.49,1.89c.93,1.11,3.31,2.38,13.48,2.38,1.29,0,2.45,0,3.5-.06,3.65-.06,9.77-.29,16.53-1.09l.6.93-.21,0c-1.23.07-3,.2-5.09.3-1,.06-2.2.1-3.41.16l-3.8.15c-1.33,0-2.69.09-4.08.11s-2.8.06-4.21.07l-4.21,0c-1.39,0-2.76,0-4.08,0s-2.6,0-3.81-.06-2.37-.05-3.42-.09l-2.89-.11L19.11,62H19ZM18.83,76.64V62.73l.21,0,2.23.21,2.89.23c1.06.09,2.21.17,3.42.24s2.5.17,3.83.23,2.7.15,4.1.2,2.81.1,4.23.13,2.84.06,4.24.07,2.77,0,4.1,0c2.66,0,5.15,0,7.28-.11,2-.05,3.6-.12,4.82-.18-1.12.09-2.63.21-4.42.33l-3.18.18L49,64.46c-2.46.1-5.1.18-7.73.21-1.31,0-2.63,0-3.93,0s-2.57,0-3.8,0-2.43,0-3.56-.06-2.21-.06-3.19-.1-1.9-.06-2.7-.1l-2.07-.11-1.81-.09,1.8.15,2.07.17c.8.07,1.71.12,2.69.19s2.06.14,3.19.19,2.33.13,3.56.17,2.51.11,3.81.14,2.62.07,3.94.08c2.64,0,5.28.05,7.76,0,1.24,0,2.43,0,3.57,0s2.21-.05,3.2-.09C58,65.12,59.85,65,61,65V75.25c-1.08.13-3.08.35-5.66.59-1,.09-2.06.19-3.19.27s-2.32.18-3.56.26-2.52.15-3.82.22-2.62.1-3.94.15-2.64.07-4,.08-2.58,0-3.82,0-2.44,0-3.58-.1-2.21-.1-3.2-.16l-2.7-.23c-.8,0-1.49-.17-2.07-.23l-1.81-.22,1.8.28c.57.09,1.26.22,2.06.31l2.7.31c1,.11,2.06.18,3.2.28s2.34.15,3.58.23,2.53.09,3.84.14,2.63,0,4,.07,2.66,0,4,0,2.6,0,3.84-.09,2.45-.08,3.59-.13,2.22-.11,3.22-.17c2.05-.11,3.76-.24,4.92-.33a149.13,149.13,0,0,1-20.47,1.18C26.2,77.92,18.83,76.64,18.83,76.64ZM59.42,35.57c.06-.11.14-.2.19-.31s.1-.19.14-.28.13-.34.16-.46l.05-.18,0,.18a.75.75,0,0,1,0,.22,1.87,1.87,0,0,1-.1.62,2.83,2.83,0,0,1-.16.36,2,2,0,0,1-.24.35,2.42,2.42,0,0,1-.31.33,3.27,3.27,0,0,1-.37.28,4,4,0,0,1-.41.21A2.16,2.16,0,0,1,58,37a1.8,1.8,0,0,1-.38.07l-.32,0-.25,0-.22,0L57,37a3.47,3.47,0,0,0,.52-.14l.33-.12a2.81,2.81,0,0,0,.35-.17,4.62,4.62,0,0,0,.66-.46A3.48,3.48,0,0,0,59.42,35.57ZM74.56,10.3l0,.28,0,.31c0,.2-.06.49-.12.86l-.12.61c-.06.22-.1.47-.19.72a8,8,0,0,1-.7,1.65,14.29,14.29,0,0,1-1.19,1.8c-.47.61-1,1.24-1.57,1.86l-.89.95-.93.94c-.64.63-1.29,1.27-2,1.89l-2,1.85-1.91,1.82-3.36,3.23-3.25,3.17.83-.92c.54-.57,1.3-1.41,2.25-2.39s2-2.11,3.26-3.31,2.54-2.45,3.87-3.7c.67-.61,1.32-1.24,2-1.86l.94-.94.89-.93c.57-.62,1.12-1.22,1.6-1.81a14.39,14.39,0,0,0,1.23-1.74,11.47,11.47,0,0,0,.56-1.1C72.61,13,72,9.41,71.62,7.7h0a2.92,2.92,0,0,0-2.46-2.63L68.7,5c-1.1,0-1.23.54-1.25.61a1,1,0,0,1-.07.25s-.14.3-.34.69A6.08,6.08,0,0,1,62.63,8a13.11,13.11,0,0,0,2-2.93c.3-1.16,1.58-2.6,4.11-2.6a7.88,7.88,0,0,1,.82,0C73.11,2.93,75.18,6.13,74.56,10.3Z"/><path class="cls-2" d="M49.21,6.07c0,.67,0,1.57,0,2.64,0,2.33,0,5.43-.16,8.54C49,18,49,18.81,49,19.57s-.11,1.52-.16,2.24-.12,1.43-.18,2.1-.14,1.29-.2,1.87-.15,1.12-.22,1.59-.14.88-.19,1.21l-.18,1.06.27-1c.08-.34.19-.74.29-1.21s.22-1,.35-1.56.23-1.21.36-1.87.24-1.36.36-2.09.23-1.47.34-2.23.21-1.54.32-2.32c.39-3.1.69-6.22.89-8.56.09-1.19.16-2.18.21-2.87h-.05Z"/><path class="cls-2" d="M25.72,29.64s-.1-.39-.27-1.09c-.08-.35-.19-.77-.29-1.25s-.19-1-.31-1.64-.18-1.25-.29-1.94-.17-1.42-.25-2.17-.13-1.54-.19-2.33-.07-1.6-.11-2.41,0-1.61,0-2.4,0-1.58,0-2.34c0-1.51.12-2.92.21-4.12s.17-2,.24-2.69c-.57-.12-1.1-.26-1.58-.41l-.38-.13v.22c0,.71,0,1.74,0,3s0,2.66.12,4.19c0,.76.1,1.55.15,2.35s.14,1.62.24,2.43.17,1.62.3,2.42.23,1.58.38,2.33.26,1.48.43,2.17.28,1.34.45,1.93.31,1.13.44,1.62.29.89.4,1.23Z"/><path class="cls-2" d="M33.52,33.75c0-.47,0-1-.09-1.57,0-1.15-.12-2.49-.19-3.92s-.12-3-.19-4.5-.13-3.07-.19-4.5c0-.72-.06-1.42-.09-2.08s-.07-1.28-.1-1.85c-.06-1.16-.13-2.12-.18-2.79s-.09-1.06-.09-1.06S32.13,13,32,15.32c0,.58-.09,1.2-.11,1.86s-.07,1.36-.08,2.09,0,1.47,0,2.23,0,1.53.05,2.3.09,1.54.14,2.3.13,1.5.2,2.22c.16,1.44.36,2.78.58,3.93.11.57.22,1.09.33,1.55s.22.86.3,1.19l.3,1s0-.39,0-1.06C33.58,34.62,33.54,34.22,33.52,33.75Z"/><path class="cls-2" d="M35.51,35.93l0-1.5c0-.52,0-1,0-1.6s-.05-1.09-.07-1.65l-.09-1.65c0-.54-.07-1.08-.1-1.59-.07-1-.14-2-.22-2.84-.14-1.65-.3-2.76-.3-2.76s-.15,1.11-.21,2.77c0,.84-.06,1.81-.06,2.85,0,.52,0,1.06,0,1.6s0,1.1,0,1.66.07,1.1.11,1.65.08,1.08.13,1.6c.1,1,.22,2,.34,2.83s.25,1.51.35,2l.17.75s0-.27,0-.76,0-1.18,0-2C35.53,36.85,35.53,36.4,35.51,35.93Z"/></svg>