<svg id="Layer_1" data-name="Layer 1" xmlns="http://www.w3.org/2000/svg" viewBox="0 0 80 80"><defs><style>.cls-1{fill:#0000fd;}.cls-2{fill:#fff;}</style></defs><title>day 3</title><path class="cls-1" d="M79.5,46.62H38.26a1,1,0,0,0-1,1v.52a1,1,0,0,1-1,1,1,1,0,0,0-.56.17l-.08.07-.08.08-.07.09a.33.33,0,0,0-.06.1.2.2,0,0,0,0,.08s0,0,0,.07a.14.14,0,0,0,0,.07H9.2a1,1,0,0,0-.72,1.73C16.75,60,33.86,59,35.41,58.91a1,1,0,0,0,1,.7h2.85a3.91,3.91,0,0,1,.68.06H40A3.69,3.69,0,0,1,42.9,64c-.47,2.22-2.34,3.69-6.09,5.12a1.51,1.51,0,0,0-.66.48L33.5,73a1.49,1.49,0,0,0-.33.93v3.51a.51.51,0,0,0,.51.51h7.59a.5.5,0,0,0,.44-.27,9.52,9.52,0,0,1,8.7-4.86,9.48,9.48,0,0,1,8.69,4.86.5.5,0,0,0,.45.27h7.59a.51.51,0,0,0,.5-.51V73.9a1.48,1.48,0,0,0-.32-.93l-2.65-3.38a1.57,1.57,0,0,0-.66-.48c-5-1.9-6.65-3.86-6.12-7.59,1.2-8.43,18.54-9.87,21.64-10.06A.5.5,0,0,0,80,51V47.13A.5.5,0,0,0,79.5,46.62Z"/><path class="cls-2" d="M18.44,54.76A40.14,40.14,0,0,1,13.59,53a39.72,39.72,0,0,1-3.51-1.91A18.5,18.5,0,0,0,13.76,54a26.43,26.43,0,0,0,10.36,3.24,36.4,36.4,0,0,0,9.5,0c-1.56-.17-3.12-.3-4.68-.48A62.29,62.29,0,0,1,18.44,54.76Z"/><path class="cls-2" d="M56.94,58.29a7.81,7.81,0,0,0-.06,7.45,7.92,7.92,0,0,1-.37-4c.82-5.76,6.68-8.09,11.41-10a23.75,23.75,0,0,0-4,1.12C61.16,53.89,58.4,55.62,56.94,58.29Z"/><path class="cls-2" d="M77.19,48.79c-1.11,0-2.69-.1-4.6-.14s-4.12-.09-6.5-.12-4.92,0-7.45-.05-5.08,0-7.46.05-4.6.08-6.5.12-3.49.11-4.6.14l-1.75.07,1.75.07c1.11,0,2.69.11,4.6.14s4.12.1,6.5.12,4.92,0,7.46.05,5.07,0,7.45-.05,4.6-.09,6.5-.12,3.49-.11,4.6-.14l1.75-.07Z"/><path class="cls-2" d="M65,73.19s-.52-.07-1.43-.16L62,72.92l-1,0-.54,0h-.12a.22.22,0,0,1-.06-.07,8.55,8.55,0,0,0-1.49-2.12,9.61,9.61,0,0,0-2.34-1.73,12.56,12.56,0,0,0-2.88-1.07,14.22,14.22,0,0,0-3.14-.42,14.23,14.23,0,0,0-3.15.42,12.73,12.73,0,0,0-2.88,1.07,9.36,9.36,0,0,0-2.33,1.73,9.2,9.2,0,0,0-.86,1,6.37,6.37,0,0,0-.35.55c-.11.18-.19.34-.29.53a.15.15,0,0,1,0,.06s0,0-.12,0l-.54,0-1,0L37.2,73c-.9.09-1.42.16-1.42.16s.52.07,1.42.15c.45,0,1,.08,1.63.11l1,0,.54,0h.1L41.09,77l.07-3.85.29-.51c.11-.15.2-.31.33-.47a8.69,8.69,0,0,1,.81-.93,9.2,9.2,0,0,1,2.16-1.56,12,12,0,0,1,2.7-1,14.08,14.08,0,0,1,3-.42,14,14,0,0,1,3,.42,11.8,11.8,0,0,1,2.7,1,9,9,0,0,1,2.16,1.56,7.74,7.74,0,0,1,1.44,1.91L59.73,77l.6-3.43h.11l.54,0,1,0c.63,0,1.18-.07,1.63-.11C64.52,73.26,65,73.19,65,73.19Z"/><path class="cls-2" d="M66.8,74.61a6.27,6.27,0,0,0-.19,1c0,.12,0,.83-.07,1.17-.33,0-.69,0-1,0l-1.46.06A19.51,19.51,0,0,0,62,77a24.91,24.91,0,0,0,4.4.3c.21,0,.44,0,.58-.17s.07-.58,0-.82A9.27,9.27,0,0,0,66.8,74.61Z"/><path class="cls-2" d="M35.22,76.74c-.31,0-.64,0-.95,0,0-.34-.05-1.06-.06-1.17-.05-.32-.11-.65-.19-1a9.2,9.2,0,0,0-.27,1.81c0,.23-.1.59.08.78s.36.13.56.13a24.91,24.91,0,0,0,4.4-.3,19.7,19.7,0,0,0-2-.23C36.25,76.77,35.73,76.75,35.22,76.74Z"/><path class="cls-2" d="M31.52,51.31a3.48,3.48,0,0,0,.24-.67,4.11,4.11,0,0,0,.16-.82h-.63v0a4.78,4.78,0,0,1,.08.75,3.39,3.39,0,0,1,0,.66,3,3,0,0,1-.1.48,1,1,0,0,1-.05.16l.1-.14A3.23,3.23,0,0,0,31.52,51.31Z"/><path class="cls-2" d="M30,51.31a4.29,4.29,0,0,0,.25-.67,6.27,6.27,0,0,0,.16-.82h-.64v0a3.82,3.82,0,0,1,.08.75,3.39,3.39,0,0,1,0,.66,2.21,2.21,0,0,1-.1.48c0,.08,0,.14,0,.16l.09-.14A2.41,2.41,0,0,0,30,51.31Z"/><path class="cls-2" d="M28.38,51.31a4.29,4.29,0,0,0,.25-.67,5,5,0,0,0,.16-.82h-.64s0,0,0,0a4.76,4.76,0,0,1,.07.75,3.39,3.39,0,0,1,0,.66,3.2,3.2,0,0,1-.09.48.8.8,0,0,0-.05.16.85.85,0,0,0,.09-.14A2.41,2.41,0,0,0,28.38,51.31Z"/><path class="cls-2" d="M26.82,51.31a3.48,3.48,0,0,0,.24-.67,4.11,4.11,0,0,0,.16-.82h-.64s0,0,0,0a4.78,4.78,0,0,1,.08.75,3.39,3.39,0,0,1,0,.66,4.84,4.84,0,0,1-.1.48,1.08,1.08,0,0,0-.05.17,1.5,1.5,0,0,0,.1-.15A4.9,4.9,0,0,0,26.82,51.31Z"/><path class="cls-2" d="M25.25,51.31a4.29,4.29,0,0,0,.25-.67,5,5,0,0,0,.15-.82H25v0a3.82,3.82,0,0,1,.08.75,3.39,3.39,0,0,1,0,.66,4.84,4.84,0,0,1-.1.48l-.05.17.1-.15A3.23,3.23,0,0,0,25.25,51.31Z"/><path class="cls-2" d="M23.68,51.31a4.29,4.29,0,0,0,.25-.67,5,5,0,0,0,.15-.82h-.63v0a3.82,3.82,0,0,1,.08.75,4.51,4.51,0,0,1,0,.66,2.89,2.89,0,0,1-.11.48l-.05.17.1-.15A3.23,3.23,0,0,0,23.68,51.31Z"/><path class="cls-2" d="M22.12,51.31a5.68,5.68,0,0,0,.24-.67,6.27,6.27,0,0,0,.16-.82h-.64v0a4.8,4.8,0,0,1,.09.75,4.41,4.41,0,0,1,0,.66,2.89,2.89,0,0,1-.11.48c0,.08,0,.14,0,.16l.1-.14A3.23,3.23,0,0,0,22.12,51.31Z"/><path class="cls-2" d="M20.55,51.31a3.48,3.48,0,0,0,.24-.67,4.11,4.11,0,0,0,.16-.82h-.63v0a4.78,4.78,0,0,1,.08.75,3.39,3.39,0,0,1,0,.66,3,3,0,0,1-.1.48,1,1,0,0,1-.05.16l.1-.14A3.23,3.23,0,0,0,20.55,51.31Z"/><path class="cls-2" d="M19,51.31a4.29,4.29,0,0,0,.25-.67,5,5,0,0,0,.15-.82h-.63v0a3.82,3.82,0,0,1,.08.75,3.39,3.39,0,0,1,0,.66,2.21,2.21,0,0,1-.1.48c0,.08,0,.14,0,.16l.09-.14A2.41,2.41,0,0,0,19,51.31Z"/><path class="cls-2" d="M17.41,51.31a4.29,4.29,0,0,0,.25-.67,5,5,0,0,0,.16-.82h-.64s0,0,0,0a4.76,4.76,0,0,1,.07.75,3.39,3.39,0,0,1,0,.66,3.2,3.2,0,0,1-.09.48.8.8,0,0,0-.05.16.85.85,0,0,0,.09-.14A2.41,2.41,0,0,0,17.41,51.31Z"/><path class="cls-2" d="M15.85,51.31a3.48,3.48,0,0,0,.24-.67,4.11,4.11,0,0,0,.16-.82h-.64s0,0,0,0a4.78,4.78,0,0,1,.08.75,3.39,3.39,0,0,1,0,.66,4.84,4.84,0,0,1-.1.48,1.08,1.08,0,0,0-.05.17,1.5,1.5,0,0,0,.1-.15A4.9,4.9,0,0,0,15.85,51.31Z"/><path class="cls-2" d="M14.28,51.31a4.29,4.29,0,0,0,.25-.67,5.18,5.18,0,0,0,.15-.82h-.63v0a3.82,3.82,0,0,1,.08.75,3.39,3.39,0,0,1,0,.66,2.66,2.66,0,0,1-.1.47l-.05.18.1-.15A3.23,3.23,0,0,0,14.28,51.31Z"/><path class="cls-2" d="M35.36,50.05a.41.41,0,0,1,0-.12.43.43,0,0,1,0-.11h-.74L35.36,58Z"/><path class="cls-1" d="M57,20.2a1.31,1.31,0,0,0-2.16-1l-6.3,5.28a1.4,1.4,0,0,0-.33.42l-.87,1.73-8.29-4.17a2,2,0,0,0-.34-.12c-1-.23-6-1.54-9.52-4.77a1.61,1.61,0,0,0-.34-.24L4,4.81A2.76,2.76,0,0,0,.32,5.94l-.06.12A2.76,2.76,0,0,0,1.55,9.69L26.43,22.2a1.53,1.53,0,0,0,.41.14,23.16,23.16,0,0,1,9.5,4.8,1.57,1.57,0,0,0,.3.2l8.29,4.17L42.17,37a1.32,1.32,0,0,0,.59,1.77l6.09,3.07a1.32,1.32,0,0,0,1.77-.59L57,28.67a1.28,1.28,0,0,0,.13-.6Z"/><path class="cls-2" d="M40.8,24.63c-.71-.39-1.41-.82-2.14-1.17a7.43,7.43,0,0,0-1.13-.36,25,25,0,0,1-8.8-4.63,10.17,10.17,0,0,0-1.95-1L21.72,14.9q-4.93-2.43-9.89-4.82C9,8.71,6.2,7.38,3.37,6.05q10.16,5.47,20.44,10.67c1.11.56,2.22,1.12,3.32,1.69a10.3,10.3,0,0,1,.94.47l.12.09.28.25c.37.33.75.63,1.14.92A21,21,0,0,0,32.73,22,27.78,27.78,0,0,0,38.29,24l.07,0c1.81.84,3.63,1.68,5.49,2.42C42.85,25.79,41.83,25.21,40.8,24.63Z"/><polygon class="cls-2" points="44.93 31.51 46.48 28.41 44.32 31.2 44.93 31.51"/><path class="cls-2" d="M55.89,26.44c0-.81,0-1.62-.1-2.42-.06-1.1-.15-2.2-.31-3.29-.11.87-.18,1.75-.23,2.62s-.08,1.56-.09,2.35c0,.39,0,.78,0,1.17a4.69,4.69,0,0,1,0,1.06,3.34,3.34,0,0,1-.31.63l-.54,1.09-1.11,2.26q-1.06,2.21-2.09,4.44c-.6,1.32-1.18,2.64-1.74,4,1.48-2.51,2.88-5.06,4.23-7.65.74-1.41,1.5-2.81,2.19-4.25A4.54,4.54,0,0,0,55.89,26.44Z"/><path class="cls-1" d="M39.88,40.22c-.44-.26-.85-.56-1.28-.78A7,7,0,0,0,37.37,39a4.9,4.9,0,0,0-1.32-.16L36,39a5.18,5.18,0,0,0,1,.93,7.08,7.08,0,0,0,1.11.69c.43.19.93.33,1.41.51,1,.35,1.9.72,2.62,1s1.21.41,1.21.41l.05-.11-1.07-.69C41.64,41.25,40.76,40.74,39.88,40.22Z"/><path class="cls-1" d="M32.55,31.37a7,7,0,0,0,.85.68c.33.2.71.39,1.08.59,1.45.84,3,1.61,3,1.61l0-.06s-1.3-1.08-2.64-2.08c-.33-.26-.65-.54-1-.76a5.6,5.6,0,0,0-1-.51,5.38,5.38,0,0,0-1-.35l-.05.07A5.48,5.48,0,0,0,32.55,31.37Z"/><path class="cls-1" d="M32,42.57c-.56-.1-1.12-.25-1.65-.32a11.08,11.08,0,0,0-1.48-.06,7.2,7.2,0,0,0-1.46.17v.09a7.71,7.71,0,0,0,1.38.51,11.59,11.59,0,0,0,1.45.29c.53,0,1.11,0,1.68.08,1.15.06,2.3.14,3.16.16l1.44,0v-.1l-1.41-.29C34.23,43,33.09,42.78,32,42.57Z"/><path class="cls-1" d="M59.23,38.14c1.15-1,2.66-2.25,4.17-3.53.76-.65,1.54-1.27,2.24-1.89a24.25,24.25,0,0,0,1.76-1.84,18.5,18.5,0,0,0,1.53-2l-.09-.09a17.16,17.16,0,0,0-2.1,1.38,24.78,24.78,0,0,0-2,1.63c-.67.65-1.34,1.39-2,2.1-1.38,1.42-2.78,2.84-3.81,3.92s-1.71,1.81-1.71,1.81l.08.09Z"/><path class="cls-1" d="M65.31,25c.49-.69,1-1.38,1.43-2s.8-1.31,1.09-1.87.54-1,.68-1.39.23-.54.23-.54l-.06,0s-.16.16-.4.44-.59.69-1,1.19S66.47,21.84,66,22.5s-.84,1.41-1.26,2.14c-1.75,2.9-3.44,5.84-3.44,5.84l.07.05S63.38,27.78,65.31,25Z"/><path class="cls-1" d="M66.57,41.21c-.34,0-.82,0-1.4,0s-1.25,0-2,.12-1.47.22-2.23.34c-3,.43-6.08,1-6.08,1v.08S58,42.51,61,42.28c.76-.05,1.53-.09,2.25-.15s1.38-.19,1.95-.31,1-.23,1.36-.33.52-.16.52-.16v-.08A5,5,0,0,0,66.57,41.21Z"/><path class="cls-1" d="M72.37,25.43c.59-.49,1.34-1.18,2.1-1.86.37-.34.78-.65,1.11-1a6.17,6.17,0,0,0,.78-1,4.77,4.77,0,0,0,.55-1.22l-.09-.08a5.24,5.24,0,0,0-1.17.64,7.27,7.27,0,0,0-1,.85c-.31.36-.59.79-.9,1.19-.62.81-1.26,1.6-1.7,2.23s-.75,1-.75,1l.09.08S71.8,25.93,72.37,25.43Z"/><path class="cls-1" d="M79.29,26a10.21,10.21,0,0,0-1.53.35,15.37,15.37,0,0,0-1.48.54c-.53.24-1.07.54-1.62.81-2.21,1.07-4.4,2.22-4.4,2.22l0,.07s2.33-.82,4.63-1.7c.57-.22,1.16-.41,1.69-.63A12.26,12.26,0,0,0,78,26.92a10.5,10.5,0,0,0,1.3-.87Z"/><path class="cls-1" d="M72.22,36.57a6.87,6.87,0,0,0-1.31,0c-.47,0-1,.18-1.47.25-1,.17-2,.32-2.76.47l-1.25.24v.12s.51,0,1.27.07,1.78,0,2.8.06c.51,0,1,.07,1.49,0a5.92,5.92,0,0,0,1.29-.24A4.92,4.92,0,0,0,73.52,37V36.9A5.13,5.13,0,0,0,72.22,36.57Z"/></svg>