<svg id="Layer_1" data-name="Layer 1" xmlns="http://www.w3.org/2000/svg" viewBox="0 0 80 80"><defs><style>.cls-1{fill:#0000fd;}.cls-2{fill:#fff;}</style></defs><title>day 2q23</title><path class="cls-1" d="M37.12,42.88c-.12-.32-.76-2-1.1-2.85a5.12,5.12,0,0,1,.58-.34L36,38.26l-.35.23c0-.34-1-9.1-.93-10.46,0-.51.22-3.35.24-4.19a44.92,44.92,0,0,0-.45-6.14c-.26-1.07-1.89-1.95-2.94-2.35a81.46,81.46,0,0,1-1.76,8l-.33,1.11h0l0,.12c-.72,2.3-1.89,5.64-3,8.59h0l-.62,1.64-.34.85a.46.46,0,0,1,.27.07c.1.09,0,.28-.25.5l-.38.35c-.28.68-.54,1.3-.75,1.78A10.59,10.59,0,0,1,26.32,40c.24.38.15.51-.07.51a4.47,4.47,0,0,1-1.47-.78s-.05,0-.06,0a0,0,0,0,0,0,.06,4.87,4.87,0,0,0,1.24.72c.23.13.57.37.49.53s-.52.16-.83.15a11.92,11.92,0,0,1-1.24-.5l-.22-.11a0,0,0,0,0-.07,0,.06.06,0,0,0,0,.07l.28.14a11.83,11.83,0,0,0,1.47.56c.21.11.4.26.36.44s-.77.14-1.1,0l-.17,0h0a4.51,4.51,0,0,1-.5-.24,4.7,4.7,0,0,1-.65-.37,5.64,5.64,0,0,1-.63-.46s0,0-.06,0a0,0,0,0,0,0,.07,6.51,6.51,0,0,0,.68.49c.22.14.45.27.66.38l.62.28c0,.07,0,.16-.2.2a1,1,0,0,1-.38,0A3.88,3.88,0,0,1,24,42h0l-.14,0h0v0c0,.47-.1,1.46-.26,2.58a15.51,15.51,0,0,1-.82,3.32l-.15.33a9.92,9.92,0,0,1-.77,1.49,5.62,5.62,0,0,1-5.1,2.58h-.24a5.45,5.45,0,0,1-3.59-1c-.1-.08-.16-.16-.25-.24-.38,4.44-.37,7.11-.48,7.11l3.32.09c-.09.52-.4,2.58-.62,4.54a0,0,0,0,0,0,0h0a28.2,28.2,0,0,0,.06,5.34c.36,2.94,1.44,7.49,1.44,7.49a19.08,19.08,0,0,0-.9,3.16c.57.07,1.16.12,1.74.17,2.9.22,5.57.2,5.57.2S19.34,76.26,19.11,76s.32-3,.77-5.55c.33-1.87,1.17-5.58,1.62-7.48h0s0,0,0,0c.42-1.84,1-4,1.16-4.65,1.56,0,5.75-.52,5.65-.3-1.56,3.42-.57,7.54-.18,9.16.68,2.75,1.76,5.91,2,7.13a15.28,15.28,0,0,1-.48,4.12s1,.12,2.17.21c.69,0,1.47.09,2.19.09,2,0,3.72-.15,3.72-.15s-1.06-.61-2.23-1.25a32.26,32.26,0,0,1-2.89-1.89A132.65,132.65,0,0,0,33.78,62c.06-1.24.07-2.81,0-4.43v-.2A8.45,8.45,0,0,0,37.75,56a61.69,61.69,0,0,0-1.4-8.66c0-.06-.31-1.15-.32-1.21.31,0,.83,1,1,.95,0,.24,0,.46,0,.64a7.2,7.2,0,0,0,.07,1,.46.46,0,0,0,.08.19.34.34,0,0,0,.29.14h0c.12,0,.45-.06.94-1.45a4.78,4.78,0,0,0-.13-3.41A8.55,8.55,0,0,0,37.12,42.88Z"/><path class="cls-1" d="M24,38.05a.58.58,0,0,0,.05-.14c.1-.21.2-.45.31-.7l-.37.28a1.48,1.48,0,0,0-.35.31l.36.25Z"/><path class="cls-2" d="M25.42,13.2a3.38,3.38,0,0,0,1.94.64,2.32,2.32,0,0,0,1-.2,3.34,3.34,0,0,0,1.2-.89,4.3,4.3,0,0,0,.9-2.67A11.46,11.46,0,0,0,30,5.81a9.19,9.19,0,0,0-4.09.34,2.22,2.22,0,0,0-.69.33c-.29.22-.33.47-.38,1,0,.15,0,.32-.05.49a31.43,31.43,0,0,1-.8,3.27A4.24,4.24,0,0,0,25.42,13.2Z"/><path class="cls-1" d="M29.33,23.18h0l.09-.34-.09.32h0c-.24.8-.54,1.78-.86,2.81.18-.55.35-1.08.5-1.56S29.21,23.59,29.33,23.18Z"/><path class="cls-1" d="M14.65,45.94a6.14,6.14,0,0,0-.62,2,2.66,2.66,0,0,0,.83.15,14.52,14.52,0,0,1,.63-2,6,6,0,0,1-.8-.23Z"/><path class="cls-1" d="M16.44,51.63h.23c3.22-.07,4.48-1.59,5.47-4a22.08,22.08,0,0,0,1-5.86v-.12c-.27-.14-.57-.3-.88-.48l-.08-.06,0,.05c-.16.43-1.06,2.82-1.83,3.47l-.12.1a7.46,7.46,0,0,1-1.29.94,4.65,4.65,0,0,1-2.3.62,5.38,5.38,0,0,1-.69-.07,15,15,0,0,0-.68,2.15.25.25,0,0,1-.23.18h0a3.07,3.07,0,0,1-1.39-.29l-.09-.06,0-.13a7,7,0,0,1,.71-2.32l0,0a8.29,8.29,0,0,1-.92-.48,2.46,2.46,0,0,1-.76-.62.13.13,0,0,1,0-.12.21.21,0,0,1,.06-.1h0a.16.16,0,0,1,.12,0,.15.15,0,0,1,.1.06,2.11,2.11,0,0,0,.58.48l.17.11a9.51,9.51,0,0,0,1.17.57,5.28,5.28,0,0,0,1,.29h0l.09,0h0a4.91,4.91,0,0,0,4.15-1.41l.12-.1c.72-.61,1.65-3.11,1.76-3.4h0l0,0-.28-.19a6.91,6.91,0,0,1-.63-.49,4.25,4.25,0,0,1-.37-.36,3,3,0,0,1-.74-1.13l-1.42-.6-1.85-.79h0a9.27,9.27,0,0,1,.43-1.57,3.61,3.61,0,0,1,.21-.49,5.86,5.86,0,0,1,1.5-1.78l1.31,1.09c.22.17.5.39.79.6s.46.35.69.51l.34.25L22,36l.16.11.21.14h0l0,0,.19.13h0l.07,0,.66-.21h0l.31-.09,1.06-.31a0,0,0,0,0,0-.05l.14,0c.11-.29.23-.6.36-.91s.23-.62.36-1c.24-.63.49-1.29.73-2h0c.21-.55.41-1.11.61-1.66a0,0,0,0,1,0-.06c.78-2.12,1.76-5.32,2.33-7.23h0c.29-1,.48-1.6.48-1.61s0,0,.05,0c.68-2.72,1.12-5.19,1.27-6.14l-.85-.27L30,14.82l-.1.42c-.12.58-.31,1.39-.53,2.35q-.14.54-.27,1.14c-.09.4-.19.81-.29,1.23h0c-.1.39-.2.79-.29,1.19-.24,1-.5,2-.74,2.93h0a.06.06,0,0,1,0,.06s-.68,2.75-1.68,5.56c-.25.7-.52,1.4-.8,2.07a.05.05,0,0,1-.05,0h0s0,0,0,0c-.41,1-.85,2.07-1.26,3l-.39.89-.18.42-.3.09-.36.12,0-.13c.19-.42.39-.88.6-1.37l0,0c.86-2,1.88-4.42,2.51-6.23l0-.06c.68-1.95,1.64-5.78,2.33-8.64.1-.38.18-.75.27-1.12h0c.28-1.18.53-2.26.71-3.08q.13-.56.21-.93v0a9.56,9.56,0,0,0-2-.34,2.93,2.93,0,0,0,1-.24,3.74,3.74,0,0,0,1.38-1,3.62,3.62,0,0,0,.22-.32,4.83,4.83,0,0,0,1.32-1c1.31-1.33.64-2.3,0-3.07a3.15,3.15,0,0,1-.59-1.15,9.11,9.11,0,0,0-.15-1.13,1.79,1.79,0,0,1,0-.23A4.77,4.77,0,0,0,25.34,1.5a3.77,3.77,0,0,0-2.1.79,8,8,0,0,0-2.3,3.88c-.83,2.6-.5,5.76,1,6.57,1.25.66,1.52-.25,1.65-1h0c-.09.54-.18,1-.25,1.25l-.07,0a18.17,18.17,0,0,0-3.46.87l-.6.23c-2.11.84-3.45,1-3.65,2.36h0c-.62.29-1.65,1.86-2.35,3.58-.12.3-.27.63-.43,1a29.39,29.39,0,0,0-2.4,7.86,0,0,0,0,0,0,0h0a15.4,15.4,0,0,0-.19,2.44c0,.13,0,.23,0,.33h0s0,0,0,0c.07,1,1.44,2.9,3.06,4.31a6.77,6.77,0,0,0,.54.43c-.44.94-1.12,2.44-1.51,3.5a5.55,5.55,0,0,0-.28,3.3,3,3,0,0,0,.2.49,11.37,11.37,0,0,0-.17,5.11,4.68,4.68,0,0,0,.62,1.27C13.29,51,14.35,51.63,16.44,51.63ZM24.77,8c0-.17,0-.34.05-.49.05-.54.09-.79.38-1a2.22,2.22,0,0,1,.69-.33A9.19,9.19,0,0,1,30,5.81a11.46,11.46,0,0,1,.44,4.27,4.3,4.3,0,0,1-.9,2.67,3.34,3.34,0,0,1-1.2.89,2.32,2.32,0,0,1-1,.2,3.38,3.38,0,0,1-1.94-.64A4.24,4.24,0,0,1,24,11.25,31.43,31.43,0,0,0,24.77,8Z"/><path class="cls-2" d="M16.44,52.23h.24a5.62,5.62,0,0,0,5.1-2.58,9.92,9.92,0,0,0,.77-1.49l.15-.33a15.51,15.51,0,0,0,.82-3.32c.16-1.12.23-2.11.26-2.58v0h0l.14,0h0a3.88,3.88,0,0,0,.56.16,1,1,0,0,0,.38,0c.2,0,.22-.13.2-.2l-.62-.28c-.21-.11-.44-.24-.66-.38a6.51,6.51,0,0,1-.68-.49,0,0,0,0,1,0-.07s.05,0,.06,0a5.64,5.64,0,0,0,.63.46,4.7,4.7,0,0,0,.65.37,4.51,4.51,0,0,0,.5.24h0l.17,0c.33.09,1,.25,1.1,0s-.15-.33-.36-.44a11.83,11.83,0,0,1-1.47-.56l-.28-.14a.06.06,0,0,1,0-.07,0,0,0,0,1,.07,0l.22.11a11.92,11.92,0,0,0,1.24.5c.31,0,.76,0,.83-.15s-.26-.4-.49-.53a4.87,4.87,0,0,1-1.24-.72,0,0,0,0,1,0-.06s0,0,.06,0a4.47,4.47,0,0,0,1.47.78c.22,0,.31-.13.07-.51a10.59,10.59,0,0,0-1.92-1.61c.21-.48.47-1.1.75-1.78l.38-.35c.23-.22.35-.41.25-.5a.46.46,0,0,0-.27-.07l.34-.85.62-1.64h0c1.1-2.95,2.27-6.29,3-8.59l0-.12h0l.33-1.11a81.46,81.46,0,0,0,1.76-8v-.1l.08-.43-.41-.14c-.38-.13-.76-.25-1.12-.35l-.53-.16-.11.52v0q-.08.38-.21.93c-.18.82-.43,1.9-.71,3.08h0c-.09.37-.17.74-.27,1.12-.69,2.86-1.65,6.69-2.33,8.64l0,.06c-.63,1.81-1.65,4.25-2.51,6.23l0,0c-.21.49-.41,1-.6,1.37l0,.13.36-.12.3-.09.18-.42L24,34.8c.41-.94.85-2,1.26-3,0,0,0,0,0,0h0a.05.05,0,0,0,.05,0c.28-.67.55-1.37.8-2.07,1-2.81,1.67-5.53,1.68-5.56a.06.06,0,0,0,0-.06h0c.24-1,.5-1.95.74-2.93.09-.4.19-.8.29-1.19h0c.1-.42.2-.83.29-1.23s.18-.78.27-1.14c.22-1,.41-1.77.53-2.35l.1-.42.23.08.85.27c-.15,1-.59,3.42-1.27,6.14,0,0,0,0-.05,0s-.19.65-.48,1.61h0c-.57,1.91-1.55,5.11-2.33,7.23a0,0,0,0,0,0,.06c-.2.55-.4,1.11-.61,1.66h0c-.24.68-.49,1.34-.73,2-.13.33-.25.64-.36,1s-.25.62-.36.91l-.14,0a0,0,0,0,1,0,.05l-1.06.31-.31.09h0l-.66.21-.07,0h0l-.19-.13,0,0h0l-.21-.14L22,36,21.93,36l-.34-.25c-.23-.16-.46-.34-.69-.51s-.57-.43-.79-.6L18.8,33.52a5.86,5.86,0,0,0-1.5,1.78,3.61,3.61,0,0,0-.21.49,9.27,9.27,0,0,0-.43,1.57h0l1.85.79,1.42.6a3,3,0,0,0,.74,1.13,4.25,4.25,0,0,0,.37.36,6.91,6.91,0,0,0,.63.49l.28.19,0,0h0c-.11.29-1,2.79-1.76,3.4l-.12.1a4.91,4.91,0,0,1-4.15,1.41h0l-.09,0h0a5.28,5.28,0,0,1-1-.29A9.51,9.51,0,0,1,13.59,45l-.17-.11a2.11,2.11,0,0,1-.58-.48.15.15,0,0,0-.1-.06.16.16,0,0,0-.12,0h0a.21.21,0,0,0-.06.1.13.13,0,0,0,0,.12,2.46,2.46,0,0,0,.76.62,8.29,8.29,0,0,0,.92.48l0,0A7,7,0,0,0,13.52,48l0,.13.09.06a3.07,3.07,0,0,0,1.39.29h0a.25.25,0,0,0,.23-.18A15,15,0,0,1,16,46.19a5.38,5.38,0,0,0,.69.07,4.65,4.65,0,0,0,2.3-.62,7.46,7.46,0,0,0,1.29-.94l.12-.1c.77-.65,1.67-3,1.83-3.47l0-.05.08.06c.31.18.61.34.88.48v.12a22.08,22.08,0,0,1-1,5.86c-1,2.43-2.25,3.95-5.47,4h-.23c-2.09,0-3.15-.64-3.76-1.5a4.68,4.68,0,0,1-.62-1.27.76.76,0,0,0,0-.11A3.66,3.66,0,0,0,12.6,51c.09.08.15.16.25.24A5.45,5.45,0,0,0,16.44,52.23ZM29.32,23.16h0l.09-.32-.09.34h0c-.12.41-.24.82-.37,1.23s-.32,1-.5,1.56C28.78,24.94,29.08,24,29.32,23.16ZM24,37.49l.37-.28c-.11.25-.21.49-.31.7a.58.58,0,0,1-.05.14h0l-.36-.25A1.48,1.48,0,0,1,24,37.49Zm-9.1,10.58a2.66,2.66,0,0,1-.83-.15,6.14,6.14,0,0,1,.62-2l0-.07a6,6,0,0,0,.8.23A14.52,14.52,0,0,0,14.86,48.07Z"/><path class="cls-2" d="M53.79,18.48h0a4.79,4.79,0,0,0,1.89,0,2.38,2.38,0,0,0,.81-.33l.31-.25.08-.09c.06-.07.13-.14.18-.21l.06-.08a2.82,2.82,0,0,0,.21-.31l.05-.08a3.13,3.13,0,0,0,.19-.35l0,0,.11-.26,0,0,.05-.15h0v0l-.27-.07h0a4.37,4.37,0,0,0-1.13-.25,13.57,13.57,0,0,1,.08-1.39l-.25.14a2.53,2.53,0,0,1-1.35.49l-.26,0a3.16,3.16,0,0,1-1.39-.34c.07.19.22.67.33,1.13h0c0,.18.08.37.1.53a0,0,0,0,1,0,0h0a0,0,0,0,1-.05,0c0-.16-.06-.34-.1-.53h0a8.78,8.78,0,0,0-1.28.23v0h0v.15a.34.34,0,0,1,0,.1c0,.09,0,.2,0,.31a.09.09,0,0,0,0,.05,2.19,2.19,0,0,0,.11.4.14.14,0,0,1,0,.06,3.17,3.17,0,0,0,.21.41l0,.05a1.7,1.7,0,0,0,.32.34A2.27,2.27,0,0,0,53.79,18.48Z"/><path class="cls-2" d="M59.25,31.75l-.06-.1A2.2,2.2,0,0,0,59,31.4a2.43,2.43,0,0,0-.24-.3c-.51-.54-2.45-.49-2.92-.41v0s-.53.83-1.06,1.6c-.11.16-.2.3-.28.44.43-.06,1.07-.11,1.15.06a5.72,5.72,0,0,0,.71.82l.37.37a5.35,5.35,0,0,0,1.1.81v-.23a5,5,0,0,0-.46-.62,5.79,5.79,0,0,0-.6-.61l-.06,0a0,0,0,1,1,0-.08l.09.07a6.6,6.6,0,0,1,.64.65,4.46,4.46,0,0,1,.33.43l.14.25c.09.12.21.22.32.2a.2.2,0,0,0,.09-.05.58.58,0,0,0,.1-.47l-.25-.43c-.26-.39-.56-.79-.74-1a1.86,1.86,0,0,1-.15-.19s0,0,0-.06,0,0,.06,0l.16.19a10.87,10.87,0,0,1,.76,1.05,5.39,5.39,0,0,1,.28.5.14.14,0,0,0,.21,0,1.14,1.14,0,0,0,.25-.56c0-.08,0-.15,0-.2a4.49,4.49,0,0,0-.68-1.32l-.33-.4s0-.05,0-.06,0,0,.06,0,.23.27.34.41a4.58,4.58,0,0,1,.71,1.39.11.11,0,0,0,.12,0c.17,0,.28-.37.3-.75a2.08,2.08,0,0,0-.26-1Z"/><path class="cls-2" d="M55.86,35.81a2.44,2.44,0,0,0-.1-.24h0c-.18-.44-.35-.89-.4-1h0a7.85,7.85,0,0,0-1,1.1l0,0a3.53,3.53,0,0,0-.24.34,2.58,2.58,0,0,0-.39,1.18s0,.06,0,.09A2.89,2.89,0,0,0,54,38.7c.16.31.63,1.25.88,1.33h0a.44.44,0,0,0,.18-.35,5.76,5.76,0,0,1-.6-1.55,0,0,0,0,1,0-.05s0,0,.05,0a7.1,7.1,0,0,0,.53,1.42h0c.14.14.32.27.42.16s0-.4-.08-.68h0A3.36,3.36,0,0,1,55,37.91a0,0,0,1,1,.09,0,3.82,3.82,0,0,0,.19.63h0a2.22,2.22,0,0,0,.3.34l.11.08h.06a.52.52,0,0,0,.1-.18,3,3,0,0,0-.37-1.11s0,0,0,0l0,0a.79.79,0,0,0,.56-.46l0-.07a1.45,1.45,0,0,0,.06-.64A3.33,3.33,0,0,1,55.86,35.81Z"/><path class="cls-1" d="M70.29,42.42c.18-1.18.23-2.49.23-2.5a.29.29,0,0,0-.08-.21h0l-.11-.09h-.5l-1.65-1.8-1.42-1.54L66,34a10.16,10.16,0,0,0,1.85-.82,0,0,0,0,0,0-.06,2.65,2.65,0,0,0,1.18-.91,4.26,4.26,0,0,0-.21-2.08,27.14,27.14,0,0,0-1.26-3.63C66.93,25,66.14,23,66.14,23a27.82,27.82,0,0,0-1.84-3.3h0l-.18-.24.1-.32S63,16.47,61.79,13s-2.67-7.15-4-8.5-4-.93-4.93-.43c-1.69.89-2.43,3.38-3.11,5.41-.37,1.09-.84,3-1.2,4.48h0L48,16.14v0s0,0,0,.05h0s0,0,0,0a2.17,2.17,0,0,0,1,1.18A5.62,5.62,0,0,0,47.16,19a15.83,15.83,0,0,0-2.07,4.72,23.72,23.72,0,0,0-1.31,5.76A15.79,15.79,0,0,0,43.72,33h0a2.07,2.07,0,0,0,.36.91c.37.51.85.8,2.13.83h0a0,0,0,0,0,0,0h0s1.2,0,3-.21c-.11.16-.23.36-.39.65a24.14,24.14,0,0,0-1.06,2.27,58.89,58.89,0,0,0-4.08,21.39v.94c0,4.14.16,9.86.26,13.77,0,.22,0,.44,0,.65,0,0,0,.6,0,.6,0,1.91.09,3.16.09,3.16s1.72,0,3.09-.1l1.49,0c1.57,0,4.15,0,6.93-.07h.86l6.81,0,5,0c0-.23,0-.47,0-.73V76.8c0-.2,0-.41,0-.62v-.27c0-.21,0-.43,0-.66a2.81,2.81,0,0,0,0-.29c0-.22,0-.44,0-.67,0,0,0-.58,0-.59,0-.34,0-.7-.08-1.07a.76.76,0,0,0,0-.15c0-.39-.06-.78-.1-1.18a2.45,2.45,0,0,0,0-.27c-.08-.91-.18-1.85-.29-2.81l0-.3c0-.42-.1-.84-.16-1.26a1.1,1.1,0,0,0,0-.18c-.06-.5-.12-1-.19-1.47a1.11,1.11,0,0,1,0-.17c-.06-.43-.12-.84-.18-1.26,0-.1,0-.21,0-.31-.07-.47-.14-.93-.2-1.38-.47-3.1-1.42-8.27-2.4-13,.26-.06.52-.12.77-.2C69.49,47.45,70.26,42.63,70.29,42.42ZM52.58,17.74a3.17,3.17,0,0,1-.21-.41.14.14,0,0,0,0-.06,2.19,2.19,0,0,1-.11-.4.09.09,0,0,1,0-.05c0-.11,0-.22,0-.31a.34.34,0,0,0,0-.1v-.15h0v0A8.78,8.78,0,0,1,53.45,16h0c0,.19.08.37.1.53a0,0,0,0,0,.05,0h0a0,0,0,0,0,0,0c0-.16-.06-.35-.1-.53h0c-.11-.46-.26-.94-.33-1.13a3.16,3.16,0,0,0,1.39.34l.26,0a2.53,2.53,0,0,0,1.35-.49l.25-.14a13.57,13.57,0,0,0-.08,1.39,4.37,4.37,0,0,1,1.13.25h0l.27.07v0h0l-.05.15,0,0-.11.26,0,0a3.13,3.13,0,0,1-.19.35l-.05.08a2.82,2.82,0,0,1-.21.31l-.06.08c-.05.07-.12.14-.18.21l-.08.09-.31.25a2.38,2.38,0,0,1-.81.33,4.79,4.79,0,0,1-1.89,0h0a2.27,2.27,0,0,1-.85-.35,1.7,1.7,0,0,1-.32-.34Zm.28,1.64a.3.3,0,0,1,.38-.18,2.78,2.78,0,0,0,.43.12h0a3.74,3.74,0,0,0,1.89,0h0a1.93,1.93,0,0,0,.34-.11l.23-.1.16.24a.29.29,0,0,1-.15.39,3,3,0,0,1-.68.22h0a3.8,3.8,0,0,1-.77.07,5.08,5.08,0,0,1-1-.11h0a4.13,4.13,0,0,1-.64-.18l-.21-.09Zm.09,1.3v-.14a.29.29,0,0,1,.35-.23l.37.06h0a5.84,5.84,0,0,0,1.72,0h0l.19,0,.1,0,.22.1.05.12a.28.28,0,0,1-.18.36,2.35,2.35,0,0,1-.49.11h0a4.36,4.36,0,0,1-.65,0,7.9,7.9,0,0,1-.91-.05h0c-.32,0-.54-.09-.54-.09l-.1,0Zm.22,1,0-.14a.29.29,0,0,1,.36-.2l.23.05h0a2.39,2.39,0,0,0,1.45-.1h0l.21-.14.2.22a.29.29,0,0,1-.09.41,1.85,1.85,0,0,1-.45.19h0a2.48,2.48,0,0,1-.63.07,3.67,3.67,0,0,1-.61-.05h0c-.27,0-.47-.09-.47-.09l-.1,0ZM53.32,23l.07-.29a.29.29,0,0,1,.38-.16l.22,0h0a2.45,2.45,0,0,0,1-.1h0a1.54,1.54,0,0,0,.27-.07l.23-.09.14.25a.3.3,0,0,1-.16.39c-.2.07-.39.12-.58.17h0a3.69,3.69,0,0,1-.65.07h-.13a2,2,0,0,1-.6-.11Zm2.17,1.11-.07.24-.12.07a1.4,1.4,0,0,1-.56.12h-.06a2.28,2.28,0,0,1-.67-.11l-.24-.08.06-.29a.28.28,0,0,1,.15-.17l.09-.05.13,0,.2,0h0a1.41,1.41,0,0,0,.42,0h0a.86.86,0,0,0,.23-.06l.22-.1Zm.64,12.94,0,.07a.79.79,0,0,1-.56.46l0,0s0,0,0,0a3,3,0,0,1,.37,1.11.52.52,0,0,1-.1.18h-.06l-.11-.08a2.22,2.22,0,0,1-.3-.34h0a3.82,3.82,0,0,1-.19-.63,0,0,0,1,0-.09,0A3.36,3.36,0,0,0,55.47,39h0c.09.28.16.58.08.68s-.28,0-.42-.16h0a7.1,7.1,0,0,1-.53-1.42s0,0-.05,0a0,0,0,0,0,0,.05,5.76,5.76,0,0,0,.6,1.55.44.44,0,0,1-.18.35h0c-.25-.08-.72-1-.88-1.33a2.89,2.89,0,0,1-.35-1.45s0-.06,0-.09A2.58,2.58,0,0,1,54.06,36a3.53,3.53,0,0,1,.24-.34l0,0a7.85,7.85,0,0,1,1-1.1h0c0,.15.22.6.4,1h0a2.44,2.44,0,0,1,.1.24,3.33,3.33,0,0,0,.33.63A1.45,1.45,0,0,1,56.13,37.08Zm3.18-3.43a.11.11,0,0,1-.12,0,4.58,4.58,0,0,0-.71-1.39c-.11-.14-.22-.28-.34-.41s0,0-.06,0,0,0,0,.06l.33.4a4.49,4.49,0,0,1,.68,1.32s0,.12,0,.2a1.14,1.14,0,0,1-.25.56.14.14,0,0,1-.21,0,5.39,5.39,0,0,0-.28-.5,10.87,10.87,0,0,0-.76-1.05l-.16-.19s0,0-.06,0,0,0,0,.06a1.86,1.86,0,0,0,.15.19c.18.22.48.62.74,1l.25.43a.58.58,0,0,1-.1.47.2.2,0,0,1-.09.05c-.11,0-.23-.08-.32-.2l-.14-.25A4.46,4.46,0,0,0,57.5,34a6.6,6.6,0,0,0-.64-.65l-.09-.07a0,0,0,1,0,0,.08l.06,0a5.79,5.79,0,0,1,.6.61,5,5,0,0,1,.46.62v.23a5.35,5.35,0,0,1-1.1-.81l-.37-.37a5.72,5.72,0,0,1-.71-.82c-.08-.17-.72-.12-1.15-.06.08-.14.17-.28.28-.44.53-.77,1-1.59,1.06-1.6v0c.47-.08,2.41-.13,2.92.41a2.43,2.43,0,0,1,.24.3,2.2,2.2,0,0,1,.17.25l.06.1.1.17a2.08,2.08,0,0,1,.26,1C59.59,33.28,59.48,33.63,59.31,33.65Zm.79-13.87s-.67-1.1-.71-1.19c-.14-.42-.25-.83-.35-1.25,0-.25-.1-.49-.14-.74-.24-1.34-.33-2.71-.52-4.06,0-.25-.07-.51-.11-.76a2,2,0,0,1-.05-.24h0a4.76,4.76,0,0,1-.22.63h0l0,0c0,.07-.08.14-.11.22h0c-.09.15-.2.3-.31.45-1.26,1.63-3.79,2.48-5.17.57a6.29,6.29,0,0,1-1-2.88c0,.24,0,.49-.05.73l-.06.76a1.77,1.77,0,0,0,0,.23.57.57,0,0,0,0,.13c-.14,1.42-.32,2.84-.47,4.24v0s-1.29,3.88-.5.18c0,0,.41-3.66.54-5.49,0-.26,0-.53,0-.79,0-.06,0-.12,0-.18,0-.69,0-1.38,0-2.06a.85.85,0,0,1,0-.16A.19.19,0,0,1,51.05,8l.13,0a.25.25,0,0,1,.13,0,.26.26,0,0,1,.09.18A4.74,4.74,0,0,0,53,7.82a5.86,5.86,0,0,0,1.76-1.37v0l0,0h0v0l0,0,0,.05a.25.25,0,0,0,0,.07v0l0,.06h0l0,0a2.22,2.22,0,0,0,.15.23v0a.21.21,0,0,1,0,.06l0,0,.11.15.06.08,0,0,0,0,0,0,0,0,0,0,.06.07.19.19,0,0,0,0h0L55.9,8l.17.14.07.06.08,0,0,0h0l.1.07.37.17h0a2.79,2.79,0,0,0,.66.18,2.34,2.34,0,0,0,.7,0h0s0,0,0,0h0a.05.05,0,0,0,0,0,18.32,18.32,0,0,1,.37,2c.58,2.38.48,4.89,1.19,7.25a4.1,4.1,0,0,0,.14.5A5.41,5.41,0,0,1,60.1,19.78Z"/><path class="cls-2" d="M59.74,18c-.71-2.36-.61-4.87-1.19-7.25a18.32,18.32,0,0,0-.37-2,.05.05,0,0,1,0,0h0s0,0,0,0h0a2.34,2.34,0,0,1-.7,0,2.79,2.79,0,0,1-.66-.18h0l-.37-.17-.1-.07h0l0,0-.08,0-.07-.06L55.9,8,55.79,8h0l0,0,0,0-.19-.19-.06-.07,0,0,0,0,0,0,0,0,0,0-.06-.08-.11-.15,0,0a.21.21,0,0,0,0-.06v0a2.22,2.22,0,0,1-.15-.23l0,0h0l0-.06v0a.25.25,0,0,1,0-.07l0-.05,0,0v0h0l0,0v0A5.86,5.86,0,0,1,53,7.82a4.74,4.74,0,0,1-1.55.37A.26.26,0,0,0,51.31,8a.25.25,0,0,0-.13,0l-.13,0a.19.19,0,0,0-.15.21.85.85,0,0,0,0,.16c0,.68,0,1.37,0,2.06,0,.06,0,.12,0,.18,0,.26,0,.53,0,.79-.13,1.83-.54,5.49-.54,5.49-.79,3.7.5-.14.5-.18v0c.15-1.4.33-2.82.47-4.24a.57.57,0,0,1,0-.13,1.77,1.77,0,0,1,0-.23l.06-.76c0-.24,0-.49.05-.73a6.29,6.29,0,0,0,1,2.88c1.38,1.91,3.91,1.06,5.17-.57.11-.15.22-.3.31-.45h0c0-.08.08-.15.11-.22l0,0h0a4.76,4.76,0,0,0,.22-.63h0a2,2,0,0,0,.05.24c0,.25.08.51.11.76.19,1.35.28,2.72.52,4.06,0,.25.09.49.14.74.1.42.21.83.35,1.25,0,.09.71,1.19.71,1.19a5.41,5.41,0,0,0-.22-1.33A4.1,4.1,0,0,1,59.74,18Z"/><path class="cls-2" d="M53.66,19.92h0a5.08,5.08,0,0,0,1,.11,3.8,3.8,0,0,0,.77-.07h0a3,3,0,0,0,.68-.22.29.29,0,0,0,.15-.39l-.16-.24-.23.1a1.93,1.93,0,0,1-.34.11h0a3.74,3.74,0,0,1-1.89,0h0a2.78,2.78,0,0,1-.43-.12.3.3,0,0,0-.38.18l0,.27.21.09A4.13,4.13,0,0,0,53.66,19.92Z"/><path class="cls-2" d="M53.73,21h0a7.9,7.9,0,0,0,.91.05,4.36,4.36,0,0,0,.65,0h0a2.35,2.35,0,0,0,.49-.11.28.28,0,0,0,.18-.36l-.05-.12-.22-.1-.1,0-.19,0h0a5.84,5.84,0,0,1-1.72,0h0l-.37-.06a.29.29,0,0,0-.35.23v.14l.14.18.1,0S53.41,20.93,53.73,21Z"/><path class="cls-2" d="M53.87,22h0a3.67,3.67,0,0,0,.61.05,2.48,2.48,0,0,0,.63-.07h0a1.85,1.85,0,0,0,.45-.19.29.29,0,0,0,.09-.41l-.2-.22-.21.14h0a2.39,2.39,0,0,1-1.45.1h0l-.23-.05a.29.29,0,0,0-.36.2l0,.14.13.19.1,0S53.6,22,53.87,22Z"/><path class="cls-2" d="M54.15,23.23h.13a3.69,3.69,0,0,0,.65-.07h0c.19-.05.38-.1.58-.17a.3.3,0,0,0,.16-.39l-.14-.25-.23.09a1.54,1.54,0,0,1-.27.07h0a2.45,2.45,0,0,1-1,.1h0l-.22,0a.29.29,0,0,0-.38.16l-.07.29.23.09a2,2,0,0,0,.6.11Z"/><path class="cls-2" d="M54.82,24h0a1.41,1.41,0,0,1-.42,0h0l-.2,0-.13,0-.09.05a.28.28,0,0,0-.15.17l-.06.29.24.08a2.28,2.28,0,0,0,.67.11h.06a1.4,1.4,0,0,0,.56-.12l.12-.07.07-.24-.22-.32-.22.1A.86.86,0,0,1,54.82,24Z"/></svg>