<svg id="Layer_1" data-name="Layer 1" xmlns="http://www.w3.org/2000/svg" viewBox="0 0 80 80"><defs><style>.cls-1{fill:#fff;}.cls-2{fill:#0000fd;}</style></defs><title>day 1</title><path class="cls-1" d="M74.61,26.6a2.48,2.48,0,0,0-.75-1.55A177.58,177.58,0,0,1,61,10.94C53.4,1.65,44.85-.32,36.93.88,26,2.53,20.94,7.06,18.16,9.6l.1.06-.11-.05c-2.6,2.37-5.32,6.5-5.55,15.05-.28,10.77,2.58,15.35,4.46,18.7,1.1,2,1.83,3.26,1.83,5.35,0,1.93-.62,2.52-2,3.82-2.13,2-5,4.78-5,13a2.44,2.44,0,0,0,3.43,2.26s3.79-1.54,12-1.54a87.69,87.69,0,0,1,12,.9A28.76,28.76,0,0,1,54,73.52a23.49,23.49,0,0,1,4.63,5,2.46,2.46,0,0,0,2.11,1.2l.27,0a2.45,2.45,0,0,0,2.07-1.67c.12-.39,2.85-9.11-5.48-22.2a15.51,15.51,0,0,0,4-4.52c.27,0,.57,0,.88,0,3.73,0,6.43-1.06,7.8-3.06C72.56,44.91,75.05,31.35,74.61,26.6Z"/><path class="cls-2" d="M74.61,26.6a2.48,2.48,0,0,0-.75-1.55A177.58,177.58,0,0,1,61,10.94C53.4,1.65,44.85-.32,36.93.88,26,2.53,20.94,7.06,18.16,9.6l.1.06-.11-.05c-2.6,2.37-5.32,6.5-5.55,15.05-.28,10.77,2.58,15.35,4.46,18.7,1.1,2,1.83,3.26,1.83,5.35,0,1.93-.62,2.52-2,3.82-2.13,2-5,4.78-5,13a2.44,2.44,0,0,0,3.43,2.26s3.79-1.54,12-1.54a87.69,87.69,0,0,1,12,.9A28.76,28.76,0,0,1,54,73.52a23.49,23.49,0,0,1,4.63,5,2.46,2.46,0,0,0,2.11,1.2l.27,0a2.45,2.45,0,0,0,2.07-1.67c.12-.39,2.85-9.11-5.48-22.2a15.51,15.51,0,0,0,4-4.52c.27,0,.57,0,.88,0,3.73,0,6.43-1.06,7.8-3.06C72.56,44.91,75.05,31.35,74.61,26.6ZM60.76,77.3S54.45,66.76,39.69,64.71a89.45,89.45,0,0,0-12.36-.92c-.69,0-1.34,0-2,0a44.56,44.56,0,0,1,4.5-.65C30.92,63.08,32,63,33.13,63s2.26,0,3.4,0,2.27.17,3.38.33,2.22.34,3.27.58,2.06.49,3,.78l1.38.44,1.27.46c.42.15.79.32,1.16.47s.72.29,1,.45c.64.3,1.21.55,1.66.79l1.42.75-1.31-.93c-.42-.3-1-.62-1.56-1-.29-.2-.63-.38-1-.58s-.71-.43-1.11-.63l-1.22-.64-1.35-.63c-.93-.42-1.92-.83-3-1.21s-2.15-.73-3.29-1-2.31-.58-3.49-.81-2.38-.41-3.56-.53-2.35-.21-3.49-.26a49.88,49.88,0,0,0-5.7.11C28,56.7,33.74,55.46,37,55l.69.18c.81.17,1.6.38,2.41.49s1.58.27,2.35.32l1.13.1c.37,0,.73,0,1.08,0a18.39,18.39,0,0,0,2,0L48.26,56c.49-.06.92-.14,1.27-.19l1.09-.18-1.11,0c-.35,0-.78,0-1.26,0l-1.63-.12a17.86,17.86,0,0,1-1.91-.27c-.34-.06-.69-.09-1-.18l-1.07-.26c-.72-.15-1.45-.39-2.19-.62s-1.48-.52-2.22-.79-1.45-.62-2.16-.92a.2.2,0,0,0-.08,0c-5.68-4.14-16.43-13.57-16.43-25.76,0-7,2-12.27,4.92-16l.73,0c.62-.06,1.29-.05,2-.07l1.1,0c.37,0,.76,0,1.15.06.78.07,1.59.13,2.4.27.4.07.82.12,1.23.2l1.23.27.62.13.61.17,1.2.35a9,9,0,0,1,1.17.4l1.14.42a11.68,11.68,0,0,1,1.08.46l1,.47a19.35,19.35,0,0,1,1.83,1l.81.45c.25.15.49.29.71.44l1.12.76,1,.67-.9-.78-1-.9a6.07,6.07,0,0,0-.66-.52l-.75-.55a18.14,18.14,0,0,0-1.74-1.2l-1-.61a11.92,11.92,0,0,0-1.05-.6l-1.11-.57a12.38,12.38,0,0,0-1.16-.56L36,10.29c-.2-.08-.4-.18-.61-.25l-.63-.22-1.25-.43c-.42-.14-.85-.24-1.27-.36-.84-.25-1.69-.42-2.5-.59-.41-.09-.82-.15-1.22-.21l-.74-.11c.49-.19,1-.39,1.6-.58.77-.26,1.62-.52,2.53-.76s1.87-.47,2.88-.64a31.06,31.06,0,0,1,3.13-.42,29.62,29.62,0,0,1,3.27-.09l.82,0,.82.07c.55,0,1.08.12,1.62.19s1.06.2,1.59.29,1,.26,1.52.39L49,7.07l1.36.55,1.26.6c.4.2.77.43,1.14.63s.7.43,1,.64.64.4.91.61c.54.42,1,.77,1.4,1.1l1.17,1-1.06-1.14c-.34-.36-.8-.76-1.3-1.24-.25-.24-.55-.46-.85-.71s-.62-.52-1-.76S52.38,7.86,52,7.6l-1.23-.75-1.35-.7c-.47-.22-1-.43-1.46-.65s-1-.39-1.56-.57-1.08-.35-1.63-.48-1.12-.29-1.7-.38l-.86-.16-.86-.12a31.52,31.52,0,0,0-3.48-.26h-.79a18.12,18.12,0,0,1,2.3-.15c7.12.23,13.69,1.75,19.7,9.12,2.93,3.58,5.8,6.77,8.1,9.23A148.75,148.75,0,0,1,51.1,26.51a79.1,79.1,0,0,0,19.05-1.68c.82.83,1.42,1.43,1.74,1.74l-1.3.2L69.4,27l-1.32.17c-.91.14-1.91.22-3,.36l-1.61.14c-.55.05-1.11.12-1.68.15l-1.74.12c-.59.05-1.18.05-1.78.08s-1.2.07-1.81.08H54.69l-.91,0-.91,0c-.61,0-1.21,0-1.81,0-1.2,0-2.37-.13-3.52-.16l-.85,0-.83-.08-1.61-.14c-1-.06-2-.2-2.84-.31l2-.37c.73-.14,1.5-.32,2.3-.48s1.62-.36,2.45-.56,1.67-.4,2.51-.63,1.68-.45,2.5-.69l1.21-.36,1.18-.37,1.15-.36,1.08-.37c.7-.24,1.37-.47,2-.7l1.66-.63,1.26-.52,1.09-.46-1.13.36-1.29.41-1.7.47c-.62.18-1.3.35-2,.52l-1.11.28-1.16.25-1.19.26-1.24.24c-.83.17-1.67.32-2.52.46s-1.69.28-2.53.41l-2.45.33c-.8.09-1.57.2-2.31.27s-1.42.15-2.06.2c-1.28.11-2.34.18-3.08.23l-1.1.05a5.32,5.32,0,0,0-3.72-.82,4.69,4.69,0,0,0-1.56.53,4.3,4.3,0,0,0-.57.35L30.6,26a4,4,0,0,0-.5.59l-.15.22.23-.13c.14-.09.38-.19.65-.32s.31-.12.48-.17.36-.11.57-.14A4.89,4.89,0,0,1,33.22,26a4.36,4.36,0,0,1,1.46.37,4.14,4.14,0,0,1,1.31.88l.18.18.09.09h0c-.07-.07,0,0,0,0h0l0,0,0,0a4.19,4.19,0,0,1,.26.33,2.6,2.6,0,0,1,.21.36,3.37,3.37,0,0,1,.19.38,4.28,4.28,0,0,1-.38,4l0,.08-.08.1-.17.2,0,0,0,0v0s0,0,0,0l-.05,0-.14.15a4.53,4.53,0,0,1-2.79,1.27,4.87,4.87,0,0,1-1.34-.06c-.21,0-.39-.1-.57-.14s-.33-.11-.48-.17a4.37,4.37,0,0,1-.65-.32L30,33.74l.15.22a3.79,3.79,0,0,0,.5.59l.43.36a4.3,4.3,0,0,0,.57.35,4.48,4.48,0,0,0,1.56.52,4.86,4.86,0,0,0,1.38,0l.64.78c.25.3.52.63.83,1s.63.67,1,1,.7.72,1.09,1.08.79.74,1.23,1.11l1.35,1.11c.46.37,1,.72,1.47,1.09a35.88,35.88,0,0,0,3.25,2c.57.33,1.17.62,1.76.92s1.22.54,1.82.82,1.25.48,1.88.7l.53.17-1.24-.26c-.64-.12-1.26-.32-1.88-.48s-1.22-.38-1.81-.56-1.13-.42-1.67-.61-1-.42-1.48-.63-.87-.38-1.23-.57L41.12,44l-.82-.43.7.61.8.69c.31.27.69.54,1.09.85s.84.66,1.33,1,1,.7,1.54,1,1.11.69,1.71,1,1.2.67,1.83,1,1.25.6,1.88.86,1.26.51,1.88.74,1.22.42,1.8.61,1.12.34,1.64.47l1.06.26a9.52,9.52,0,0,1-3.44,2.45C63.65,68.53,60.76,77.3,60.76,77.3Zm7.45-30.38a3,3,0,0,1-.46.54,40.52,40.52,0,0,1-4.44-.13c-.94-.08-2-.19-3-.36s-2.17-.39-3.31-.64-2.3-.58-3.46-1-2.32-.8-3.47-1.27c-.57-.25-1.15-.47-1.71-.74s-1.13-.51-1.67-.8l-.81-.42q-.42-.2-.81-.42c-.52-.3-1-.58-1.56-.88L42,39.94l-1.4-.89c-.46-.29-.89-.61-1.32-.89l-.63-.42-.59-.42c-.78-.56-1.5-1.06-2.12-1.54l-.29-.21a5.52,5.52,0,0,0,1.58-.85l.24-.19.12-.1.13-.13.18-.18L38,34l.11-.13a5.33,5.33,0,0,0,.72-1.1,5.79,5.79,0,0,0,.6-2.54,5.7,5.7,0,0,0-.35-2c.57.21,1.2.4,1.87.62l1.42.45c.24.08.5.14.75.2l.79.18,1.64.35.85.18.88.13c.59.09,1.19.16,1.8.24l.92.11c.3,0,.62,0,.93.06.62,0,1.25.08,1.89.1.31,0,.63,0,.95,0h1l1.91,0c.63,0,1.26-.1,1.88-.14,1.25-.09,2.47-.27,3.65-.46.59-.09,1.16-.2,1.72-.33s1.11-.23,1.64-.37c1-.29,2-.54,2.95-.86.44-.15.88-.29,1.28-.44l1.15-.46c.48-.19.91-.39,1.3-.57C72.41,31.93,70.07,44.19,68.21,46.92Z"/><path class="cls-2" d="M70.39,31.25l-.33.07-1,.19c-.4.09-.9.16-1.46.28s-1.2.21-1.89.31l-1.08.16-1.16.15c-.79.12-1.64.18-2.5.28s-1.76.15-2.67.2-1.83.1-2.76.07H54.21c-.46,0-.91,0-1.37-.06l-1.35-.06-1.31-.13c-.43,0-.85-.07-1.27-.12l-1.21-.19-1.15-.16c-.37,0-.72-.15-1.06-.21-.68-.16-1.32-.27-1.88-.39s-1-.29-1.43-.39l-1.27-.32s.41.25,1.14.65c.37.19.82.44,1.34.7s1.15.47,1.82.73c.34.12.69.27,1.06.38l1.16.32,1.23.32a4.86,4.86,0,0,0,.55.11,39.43,39.43,0,0,1-1,5.67c-.77-.35-1.52-.7-2.21-1.07s-1.35-.75-2-1.12l-.84-.54-.74-.52c-.47-.33-.84-.65-1.17-.9l-1-.84.21.27c.13.18.32.44.59.76s.61.7,1,1.1l.68.64.79.66a22.08,22.08,0,0,0,1.89,1.35c.69.44,1.44.88,2.24,1.29s1.65.8,2.52,1.15,1.78.67,2.69,1,1.83.53,2.74.75,1.82.4,2.7.56a44.15,44.15,0,0,0,4.83.59c1.42.1,2.61.1,3.43.09S68,44.94,68,44.94l-1.87-.29A70.5,70.5,0,0,0,68.84,32l.38-.17c.38-.17.67-.33.87-.43A2.61,2.61,0,0,0,70.39,31.25ZM51.7,34.54l1,.09,1,.07a41.18,41.18,0,0,1-1.35,6.72q-.83-.27-1.62-.57l-.4-.15A42.17,42.17,0,0,0,51.7,34.54Zm5.11.17,1.66-.11a2.58,2.58,0,0,0,.4,0,42.8,42.8,0,0,1-1.77,8.26L56,42.53c-.33-.08-.65-.18-1-.27A51.85,51.85,0,0,0,56.81,34.71Zm5.67-.7c.44-.09.87-.18,1.28-.29l.93-.24A45.12,45.12,0,0,1,62.32,44l-1.24-.24-.9-.19A56.38,56.38,0,0,0,62.48,34Z"/><path class="cls-2" d="M55.48,63.8c-.36-.18-.77-.39-1.2-.63s-.94-.45-1.44-.71-1.07-.47-1.64-.71c-.29-.11-.57-.25-.87-.35l-.91-.32c-.6-.24-1.24-.42-1.87-.62s-1.27-.38-1.89-.56-1.25-.34-1.86-.47-1.19-.28-1.75-.39l-1.58-.33-1.35-.25-1-.18-.92-.15A18.46,18.46,0,0,1,40.55,58c.51,0,1.06,0,1.64.11s1.2.14,1.83.24,1.27.23,1.93.38,1.31.32,2,.53,1.3.41,1.92.68,1.23.51,1.81.81l.84.42c.27.14.53.31.78.46a14.36,14.36,0,0,1,1.38.91c.41.31.78.6,1.1.86s.57.53.79.74l.65.66s-.3-.16-.81-.47Z"/><path class="cls-2" d="M29.72,44.58a19.36,19.36,0,0,1-1.65-1.5c-.3-.28-.58-.6-.88-.93l-.46-.5-.44-.54a23.19,23.19,0,0,1-1.72-2.43,24.42,24.42,0,0,1-1.49-2.83c-.21-.51-.44-1-.61-1.54l-.28-.78-.23-.8c-.17-.53-.27-1.08-.4-1.62s-.2-1.08-.28-1.62-.14-1.08-.16-1.61c0-.27,0-.54-.05-.8V26.3a23.4,23.4,0,0,1,.17-3,25.21,25.21,0,0,1,.47-2.62A20.91,20.91,0,0,1,23,17a11.77,11.77,0,0,1,.68-1.33s-.13.53-.29,1.45c-.09.46-.16,1-.26,1.66s-.15,1.36-.22,2.14-.09,1.64-.09,2.54,0,1.83.1,2.8.2,2,.36,3,.4,2,.69,3l.21.74.25.73c.15.49.34,1,.53,1.43.37.94.79,1.85,1.23,2.71s.91,1.68,1.4,2.43l.35.57.36.53c.25.34.46.69.7,1,.49.62.9,1.22,1.32,1.71s.75,1,1.07,1.3c.61.71.95,1.13.95,1.13s-.45-.28-1.23-.83A16.49,16.49,0,0,1,29.72,44.58Z"/></svg>