<svg id="Layer_1" data-name="Layer 1" xmlns="http://www.w3.org/2000/svg" viewBox="0 0 80 80"><defs><style>.cls-1{fill:#fff;}.cls-2,.cls-4{fill:none;}.cls-3{fill:#0000fd;}.cls-4{stroke:#0000fd;stroke-linecap:round;stroke-linejoin:round;stroke-width:0;}</style></defs><title>day 4</title><path class="cls-1" d="M77.87,1.52l-.31,0a1.76,1.76,0,0,0-1.67,1.18c-.06.14-3.6,9.61-11.69,9.61-3.33,0-56.2,1-57.17,1.07a7,7,0,0,1-4.24-1.42,1.75,1.75,0,0,0-1.18-.46,1.72,1.72,0,0,0-.73.16,1.78,1.78,0,0,0-1,1.63v7.14A1.76,1.76,0,0,0,.89,22a1.68,1.68,0,0,0,.72.16,1.78,1.78,0,0,0,1.19-.46,5.71,5.71,0,0,1,1-.65A9.59,9.59,0,0,0,3.35,24v.09a8.3,8.3,0,0,0,8.29,8.29h.43V79.9L14,78.78,37.39,68.53,58.85,78.78l1.93,1.12V32.42h3.69a8.32,8.32,0,0,0,8.16-6.81A19.93,19.93,0,0,1,75.89,31a1.79,1.79,0,0,0,1.67,1.18,1.63,1.63,0,0,0,.31,0,1.78,1.78,0,0,0,1.47-1.76V3.28A1.78,1.78,0,0,0,77.87,1.52ZM14.8,27.23c-.63.6-1.43.28-2.56.28a3.65,3.65,0,1,1-.08-7.28,3.86,3.86,0,0,1,2.17.63c.64-.61,43.59-.21,44.72-.21l.78,6.79C59,27.44,15.38,27.61,14.8,27.23Zm49.31.55c-1.25-.18-2.14-7.55,0-8C69.15,18.7,69.2,28.51,64.11,27.78Z"/><path class="cls-2" d="M9.38,24v.09a2.26,2.26,0,0,0,2.26,2.25H59.05V21.79H11.64A2.26,2.26,0,0,0,9.38,24Z"/><path class="cls-2" d="M68.51,24v.09a4,4,0,0,1-4,4H62.25V22.82H60.83v5.35H11.64a4,4,0,0,1-4-4V24a4.06,4.06,0,0,1,.62-2.15,8.45,8.45,0,0,0-2.66-.33A8,8,0,0,0,5.13,24v.09a6.52,6.52,0,0,0,6.51,6.51h2.59l-1,0c-.67,0-1.28,0-1.93-.08a5.7,5.7,0,0,1-4.06-2.19,6.58,6.58,0,0,1-1-1.56,5.43,5.43,0,0,1-.23-.6,5.1,5.1,0,0,0,.31.55,7.53,7.53,0,0,0,1.11,1.39,5.72,5.72,0,0,0,2.27,1.4,6.16,6.16,0,0,0,1.59.24c.57,0,1.24,0,1.89-.05,1.34-.05,2.78-.07,4.3-.11s3.14-.07,4.8-.08c3.33-.06,6.88-.06,10.44-.08l4.49,0,5.23,0,5.3,0c1.75,0,3.47.05,5.13.06s3.27.06,4.8.1l4.3.11a13.57,13.57,0,0,0,3.53-.21,7.05,7.05,0,0,0,2.5-1,5.66,5.66,0,0,0,1.26-1.23c.13-.17.2-.31.26-.4l.09-.14-.07.15a4,4,0,0,1-.21.43,5.21,5.21,0,0,1-1.15,1.42,6.77,6.77,0,0,1-2.53,1.35,10.08,10.08,0,0,1-1.74.39,17.42,17.42,0,0,1-1.94.12l-1.78.06h4.26A6.51,6.51,0,0,0,71,24.38a5.37,5.37,0,0,0-2.56-1.24A3.82,3.82,0,0,1,68.51,24Z"/><path class="cls-2" d="M66.72,24.13V24a2.25,2.25,0,0,0-2.25-2.25H64v4.59h.44A2.25,2.25,0,0,0,66.72,24.13Z"/><path class="cls-2" d="M24.6,32.42H13.35V77.67l24-10.62,0,0,0,0,22,10.61V32.42H24.6Zm-.89,24.24q-.06,1.46-.15,2.79c0,.88-.12,1.71-.19,2.48-.28,3.08-.63,5.12-.63,5.12s0-2.07,0-5.15c0-1.53,0-3.33,0-5.25,0-1,0-1.95,0-3s0-2-.07-3-.08-2-.12-3-.06-2-.08-3c0-1.93,0-3.73,0-5.28.09-3.08.33-5.14.33-5.14s.14,2.06.32,5.14c.09,1.53.2,3.32.31,5.24.06,1,.12,2,.18,3s.12,2,.16,3.07,0,2.07,0,3.08S23.73,55.7,23.71,56.66Zm2.14-4.14c-.06.77-.12,1.41-.19,1.86l-.11.7s0-.26-.06-.71-.09-1.09-.13-1.85c0-.39-.06-.8-.08-1.24s-.07-.9-.09-1.38-.07-1-.09-1.47L25,46.9c0-.51-.05-1-.07-1.52s0-1-.07-1.48c0-1-.06-1.85-.07-2.62,0-1.54,0-2.58,0-2.58s.25,1,.49,2.53c.12.77.24,1.66.34,2.62s.18,2,.24,3c0,.51,0,1,.06,1.53s0,1,0,1.49C25.94,50.84,25.9,51.75,25.85,52.52ZM32,49.59c-.05.77-.12,1.41-.19,1.86s-.11.7-.11.7,0-.26-.06-.71-.08-1.09-.12-1.85c0-.39-.07-.8-.09-1.24s-.06-.9-.09-1.38-.07-1-.08-1.48L31.19,44c0-.51-.05-1-.08-1.52s0-1-.06-1.48c0-1-.07-1.86-.08-2.63,0-1.53,0-2.57,0-2.57s.25,1,.48,2.53c.12.76.25,1.66.34,2.62s.18,2,.25,3l.06,1.53c0,.51,0,1,0,1.49C32.11,47.91,32.08,48.81,32,49.59ZM45.64,66.88c0-.23-.1-.44-.13-.69-.15-.83-.34-1.74-.44-2.71s-.27-2-.33-3-.18-2.15-.2-3.27-.08-2.24-.09-3.38,0-2.26,0-3.37.09-2.21.13-3.27c.11-2.11.27-4.08.45-5.77s.36-3.09.51-4.06.25-1.54.25-1.54,0,2.26,0,5.64c0,1.69,0,3.66-.06,5.77,0,1,0,2.14,0,3.25s0,2.22,0,3.35v1.68l0,1.66c0,.55,0,1.1,0,1.64s0,1.08.06,1.6c0,.84.07,1.64.12,2.42C45.86,64.15,45.75,65.52,45.64,66.88ZM54.48,53c0-1.11.08-2.2.12-3.26.12-2.12.27-4.09.45-5.78s.36-3.08.51-4.06.26-1.54.26-1.54,0,2.27,0,5.64c0,1.69,0,3.66-.06,5.77,0,1,0,2.14,0,3.25s0,2.23,0,3.35v1.68c0,.56,0,1.11,0,1.67l0,1.64L55.86,63c0,1.06.1,2.07.16,3s.14,1.86.21,2.7.18,1.6.27,2.28l.12,1c0,.29.11.56.15.8.19,1,.29,1.52.29,1.52s-.2-.52-.54-1.46c-.08-.23-.18-.49-.26-.78L56,71.06c-.17-.67-.38-1.43-.51-2.27s-.34-1.75-.44-2.72-.26-2-.32-3-.19-2.15-.21-3.27-.07-2.24-.08-3.37S54.46,54.11,54.48,53Z"/><path class="cls-2" d="M64.2,14.07c-6.74,0-27.72.54-39.39.85a2.5,2.5,0,0,1,.09-.25c-9.69.24-17.84.47-17.84.47a8.66,8.66,0,0,1-5.45-1.87v7.14a8.15,8.15,0,0,1,2.81-1.47l.7-3.67.64,3.37a8.91,8.91,0,0,1,1.3-.1h.11l.62-3.27.68,3.57q.66,0,1.41.06c1.17.09,2.46.31,3.83.44a16.57,16.57,0,0,0,2.13.05l2.37-.08c1.62,0,3.32-.12,5.09-.14s3.6-.07,5.45-.09l5.63,0,5.12,0,4.6,0,5.63,0c1.85,0,3.68.05,5.45.08s3.47.08,5.09.13c1.41,0,2.75.07,4,.19l.59-4,.6,4.11a15.31,15.31,0,0,1,3.23.86,12.46,12.46,0,0,1,2.68,1.44,9,9,0,0,1,1.46,1.27,4.72,4.72,0,0,1,.43.53v0l.41.44,0-.05c-.23-.33-.43-.71-.7-1l-.4-.51-.45-.48a8.1,8.1,0,0,0-1-.89L70.92,21l-.26-.18-.53-.36a3.18,3.18,0,0,0-.53-.31l-.53-.27a7.1,7.1,0,0,0-1-.43,7.24,7.24,0,0,0-.88-.31l-.71-.17-.61-.16.63.06.73.06a6,6,0,0,1,.94.16,7.43,7.43,0,0,1,1.11.27l.59.19a4.67,4.67,0,0,1,.62.24l.62.29.32.14.3.19a9.19,9.19,0,0,1,1.2.79c.2.15.39.29.58.45l.53.49c.37.32.66.7,1,1s.57.71.8,1.07l.21.32.29-16.36,1.25,18.66V3.28S73.7,14.07,64.2,14.07Zm-4.56,4.38-4.17,0-12.63.13H39.41c-1.13,0-2.24,0-3.32,0l-4.19,0H29.69c-1.13,0-2.25,0-3.32,0-2.16,0-4.17,0-5.9,0-3.45,0-5.76-.16-5.76-.16s2.28-.36,5.73-.66c.86-.07,1.8-.16,2.79-.22s2-.14,3.11-.18,2.19-.11,3.32-.13l3.44-.07h3.45c.88,0,1.74,0,2.59.07h.25l3.44-.07h3.44c1.13,0,2.25.06,3.33.09s2.13.1,3.12.16l2.78.22c.87.08,1.66.18,2.35.26s1.31.18,1.81.26l1.57.26S60.65,18.45,59.64,18.45Z"/><path class="cls-3" d="M23.57,47.53c-.06-1-.12-2-.18-3-.11-1.92-.22-3.71-.31-5.24-.18-3.08-.32-5.14-.32-5.14s-.24,2.06-.33,5.14c-.05,1.55-.07,3.35,0,5.28,0,1,0,2,.08,3s.09,2,.12,3,.06,2,.07,3,0,2,0,3c0,1.92,0,3.72,0,5.25,0,3.08,0,5.15,0,5.15s.35-2,.63-5.12c.07-.77.14-1.6.19-2.48s.11-1.82.15-2.79.06-2,.06-3,0-2,0-3.08S23.63,48.54,23.57,47.53Z"/><path class="cls-3" d="M25.86,46.86c-.06-1-.13-2-.24-3s-.22-1.85-.34-2.62c-.24-1.52-.49-2.53-.49-2.53s0,1,0,2.58c0,.77,0,1.66.07,2.62,0,.48,0,1,.07,1.48s0,1,.07,1.52l.09,1.53c0,.5.07,1,.09,1.47s.06.94.09,1.38,0,.85.08,1.24c0,.76.1,1.4.13,1.85s.06.71.06.71l.11-.7c.07-.45.13-1.09.19-1.86s.09-1.68.09-2.64c0-.48,0-1,0-1.49S25.88,47.37,25.86,46.86Z"/><path class="cls-3" d="M45.81,58.76c0-.54,0-1.09,0-1.64l0-1.66V53.78c0-1.13,0-2.25,0-3.35s0-2.2,0-3.25c0-2.11,0-4.08.06-5.77,0-3.38,0-5.64,0-5.64s-.1.56-.25,1.54-.34,2.37-.51,4.06-.34,3.66-.45,5.77c0,1.06-.12,2.16-.13,3.27s0,2.24,0,3.37,0,2.27.09,3.38.12,2.21.2,3.27.21,2.08.33,3,.29,1.88.44,2.71c0,.25.09.46.13.69.11-1.36.22-2.73.35-4.1-.05-.78-.1-1.58-.12-2.42C45.85,59.84,45.83,59.3,45.81,58.76Z"/><path class="cls-3" d="M77.87,1.52l-.31,0a1.76,1.76,0,0,0-1.67,1.18c-.06.14-3.6,9.61-11.69,9.61-3.33,0-56.2,1-57.17,1.07a7,7,0,0,1-4.24-1.42,1.75,1.75,0,0,0-1.18-.46,1.72,1.72,0,0,0-.73.16,1.78,1.78,0,0,0-1,1.63v7.14A1.76,1.76,0,0,0,.89,22a1.68,1.68,0,0,0,.72.16,1.78,1.78,0,0,0,1.19-.46,5.71,5.71,0,0,1,1-.65A9.59,9.59,0,0,0,3.35,24v.09a8.3,8.3,0,0,0,8.29,8.29h.43V79.9L14,78.78,37.39,68.53,58.85,78.78l1.93,1.12V32.42h3.69a8.32,8.32,0,0,0,8.16-6.81A19.93,19.93,0,0,1,75.89,31a1.79,1.79,0,0,0,1.67,1.18,1.63,1.63,0,0,0,.31,0,1.78,1.78,0,0,0,1.47-1.76V3.28A1.78,1.78,0,0,0,77.87,1.52ZM59.5,77.67l-22-10.61,0,0,0,0-24,10.62V32.42H59.5Zm5-47H60.21L62,30.58a17.42,17.42,0,0,0,1.94-.12,10.08,10.08,0,0,0,1.74-.39,6.77,6.77,0,0,0,2.53-1.35,5.21,5.21,0,0,0,1.15-1.42,4,4,0,0,0,.21-.43l.07-.15-.09.14c-.06.09-.13.23-.26.4A5.66,5.66,0,0,1,68,28.49a7.05,7.05,0,0,1-2.5,1,13.57,13.57,0,0,1-3.53.21l-4.3-.11c-1.53,0-3.14-.08-4.8-.1s-3.38-.05-5.13-.06l-5.3,0-5.23,0-4.49,0c-3.56,0-7.11,0-10.44.08-1.66,0-3.27,0-4.8.08s-3,.06-4.3.11c-.65,0-1.32.05-1.89.05a6.16,6.16,0,0,1-1.59-.24,5.72,5.72,0,0,1-2.27-1.4,7.53,7.53,0,0,1-1.11-1.39A5.1,5.1,0,0,1,6,26.18a5.43,5.43,0,0,0,.23.6,6.58,6.58,0,0,0,1,1.56,5.7,5.7,0,0,0,4.06,2.19c.65,0,1.26,0,1.93.08l1,0H11.64a6.52,6.52,0,0,1-6.51-6.51V24a8,8,0,0,1,.43-2.48,8.45,8.45,0,0,1,2.66.33A4.06,4.06,0,0,0,7.6,24v.09a4,4,0,0,0,4,4H60.83V22.82h1.42v5.35h2.22a4,4,0,0,0,4-4V24a3.82,3.82,0,0,0-.11-.9A5.37,5.37,0,0,1,71,24.38,6.51,6.51,0,0,1,64.47,30.64ZM24.58,21.79H59.05v4.59H11.64a2.26,2.26,0,0,1-2.26-2.25V24a2.26,2.26,0,0,1,2.26-2.25ZM64,26.38V21.79h.44A2.25,2.25,0,0,1,66.72,24v.09a2.25,2.25,0,0,1-2.25,2.25Zm9.24-2.7h0Zm4.29,3.15L76.31,8.17,76,24.53l-.21-.32c-.23-.36-.52-.7-.8-1.07s-.61-.71-1-1l-.53-.49c-.19-.16-.38-.3-.58-.45a9.19,9.19,0,0,0-1.2-.79l-.3-.19-.32-.14-.62-.29a4.67,4.67,0,0,0-.62-.24l-.59-.19a7.43,7.43,0,0,0-1.11-.27,6,6,0,0,0-.94-.16l-.73-.06-.63-.06.61.16.71.17a7.24,7.24,0,0,1,.88.31,7.1,7.1,0,0,1,1,.43l.53.27a3.18,3.18,0,0,1,.53.31l.53.36.26.18.25.21a8.1,8.1,0,0,1,1,.89l.45.48.4.51c.27.32.47.7.7,1l0,.05-.41-.44v0a4.72,4.72,0,0,0-.43-.53,9,9,0,0,0-1.46-1.27,12.46,12.46,0,0,0-2.68-1.44,15.31,15.31,0,0,0-3.23-.86l-.6-4.11-.59,4c-1.29-.12-2.63-.15-4-.19-1.62-.05-3.32-.11-5.09-.13s-3.6-.08-5.45-.08l-5.63,0-4.6,0-5.12,0-5.63,0c-1.85,0-3.68.06-5.45.09s-3.47.09-5.09.14l-2.37.08a16.57,16.57,0,0,1-2.13-.05c-1.37-.13-2.66-.35-3.83-.44q-.75-.06-1.41-.06l-.68-3.57-.62,3.27H7.06a8.91,8.91,0,0,0-1.3.1l-.64-3.37-.7,3.67a8.15,8.15,0,0,0-2.81,1.47V13.27a8.66,8.66,0,0,0,5.45,1.87s50.4-1.07,57.14-1.07c9.5,0,13.36-10.79,13.36-10.79Z"/><path class="cls-4" d="M73.28,23.69h0"/><path class="cls-3" d="M57.85,17.91c-.69-.08-1.48-.18-2.35-.26l-2.78-.22c-1-.06-2-.12-3.12-.16s-2.2-.08-3.33-.09H42.83l-3.44.07h-.25c-.85,0-1.71-.06-2.59-.07H33.1l-3.44.07c-1.13,0-2.24.08-3.32.13s-2.13.12-3.11.18-1.93.15-2.79.22c-3.45.3-5.73.66-5.73.66s2.31.12,5.76.16c1.73,0,3.74,0,5.9,0,1.07,0,2.19,0,3.32,0H31.9l4.19,0c1.08,0,2.19,0,3.32,0h3.43l12.63-.13,4.17,0c1,0,1.59,0,1.59,0l-1.57-.26C59.16,18.09,58.55,18,57.85,17.91Z"/><path class="cls-3" d="M32,43.93c-.07-1-.14-2.06-.25-3s-.22-1.86-.34-2.62c-.23-1.52-.48-2.53-.48-2.53s0,1,0,2.57c0,.77,0,1.67.08,2.63,0,.48,0,1,.06,1.48s.05,1,.08,1.52l.09,1.52c0,.51.06,1,.08,1.48s.07.94.09,1.38.06.85.09,1.24c0,.76.1,1.4.12,1.85s.06.71.06.71.05-.26.11-.7.14-1.09.19-1.86.09-1.68.09-2.64c0-.49,0-1,0-1.49Z"/><path class="cls-3" d="M54.74,63c.06,1.06.2,2.09.32,3s.29,1.88.44,2.72.34,1.6.51,2.27l.25.93c.08.29.18.55.26.78.34.94.54,1.46.54,1.46s-.1-.56-.29-1.52c0-.24-.11-.51-.15-.8l-.12-1c-.09-.68-.21-1.44-.27-2.28S56.06,66.94,56,66s-.13-2-.16-3l-.06-1.59,0-1.64c0-.56,0-1.11,0-1.67V56.37c0-1.12,0-2.25,0-3.35s0-2.2,0-3.25c0-2.11,0-4.08.06-5.77,0-3.37,0-5.64,0-5.64s-.11.56-.26,1.54-.33,2.38-.51,4.06-.33,3.66-.45,5.78c0,1.06-.11,2.15-.12,3.26s0,2.25,0,3.38,0,2.26.08,3.37S54.65,62,54.74,63Z"/></svg>